<svg xmlns="http://www.w3.org/2000/svg" viewBox="0 0 512 512"><g id="Layer_4" data-name="Layer 4"><path d="M331.09,373.52a4.43,4.43,0,0,1,.1,1.72H285.83a2,2,0,0,1,1.65-2.49,18.67,18.67,0,0,1,3.75-.45c1.9-.14,3.81-.23,5.84-.35-1.09-1.61-2.11-3-3-4.46a22.54,22.54,0,0,1-3-8.84,5.27,5.27,0,0,1,0-1.19,2.42,2.42,0,0,0-1.65-3c-.45-.22-.91-.39-1.34-.57-1.48,3.71-3,7.35-4.37,11.07-1.22,3.37-2.25,6.81-3.34,10.24H268.94A1.75,1.75,0,0,1,270,373.3a7.55,7.55,0,0,1,2.85-.83c2-.13,2.71-.61,3.14-2.56a52.49,52.49,0,0,0,.74-14.48c-.17-2.95-.07-5.93-1.75-8.6a26.47,26.47,0,0,1-1.89-3.9c-1.47-3.56-2.56-7.17-1.33-11.06a1.57,1.57,0,0,0,.06-1.06c-.68-1.42-.05-2.75.12-4.13a20.08,20.08,0,0,0,.12-4.38,2,2,0,0,0-1.5-1.93,5.94,5.94,0,0,1-4.34-4.81,10,10,0,0,1,1.19-7.22,6.82,6.82,0,0,0,.65-4.06,43.61,43.61,0,0,1,.19-6.25,4.52,4.52,0,0,1,.44-1.13c.53.73.88,1.3,1.32,1.8a34,34,0,0,0,4,4.24,3.72,3.72,0,0,0,5.47-1c1-1.46,1.86-3,2.83-4.5.69-1.05,1.2-1.07,1.61.1a42.12,42.12,0,0,1,1.86,6.53c.4,2.15.17,4.38,1.25,6.42a5.44,5.44,0,0,1,.3,2.34c0,1.69-.08,3.41,1.38,4.71a2.74,2.74,0,0,1,.58,1,6.71,6.71,0,0,0,3.09,3.38,39.38,39.38,0,0,0,4.29,2.07c4.21,1.7,8.51,3.2,12.66,5a40.48,40.48,0,0,1,16.15,12.62,39,39,0,0,1,5.63,11.66,22.3,22.3,0,0,1-1.54,18.13A8.09,8.09,0,0,1,331.09,373.52Z" fill="#723e19"/><path d="M213.36,372.6c.48,0,1,0,1.45,0,.93-.06,1.36-.6,1.57-1.49.42-1.74-1.68-4.65-3.63-4.38a32,32,0,0,1-4.18,0c.59-.34,1-.53,1.34-.79,2.62-1.89,5.39-3.68,5.29-7.68A9.48,9.48,0,0,1,217,359.6c1.85,2.3,3.63,4.66,5.43,7,.66.87,1.3,1.75,1.94,2.63a3.53,3.53,0,0,1,.65,1c.42,1.81,1.84,2.31,3.35,2.31,4.23,0,8.46-.13,12.68-.26a1.15,1.15,0,0,0,1-1.91c-.8-1.3-1.76-2.41-3.53-2.19-.45.06-.91,0-1.35,0-1.38.17-2.08-.47-2.29-2a50.77,50.77,0,0,1-.41-7.4c0-2.61.32-5.23.54-7.84a5.41,5.41,0,0,1,.46-1.66c.34-.76.7-1.5,1.06-2.24l-.23.63c.52-.94,1-1.91,1.42-2.91-.11.79-.22,1.58-.36,2.36q.52-1.56,1-3.15a.48.48,0,0,0,.36-.14c-.08.68-.17,1.36-.28,2,.38-1.25.71-2.52,1-3.81A27,27,0,0,1,239,345a26,26,0,0,0,.84-3c0,.67-.07,1.34-.13,2,.24-1,.44-2,.62-3l.13,1.42.13-1.24c0,.32,0,.65-.08,1,.13-.48.25-1,.34-1.45,0,.3-.06.6-.11.91a25.21,25.21,0,0,0,.68-3,15.29,15.29,0,0,0,.55-1.78,7.19,7.19,0,0,1-.49,2.17,7.84,7.84,0,0,0,1.16-3.9,3.32,3.32,0,0,0,.38-2.42,9,9,0,0,1,.11-3,7.41,7.41,0,0,0-.05-5.42,3.33,3.33,0,0,1,.46-3.6c.83-1,1.81-1.8,2.68-2.73a4.42,4.42,0,0,1,3.23-1.37,3.09,3.09,0,0,0,3.08-2.17c.64-1.91,1.2-3.86,1.66-5.83.29-1.25-.06-1.64-1.38-1.92-1.48-.31-3-.56-4.46-.82a3.67,3.67,0,0,1-2.53-1.21,7.5,7.5,0,0,0-4.48-2.75c-1.53-.36-3.08-.64-4.63-1q-.47-2.92-.95-5.87l-.4-.05-1.94,2.49c-.63-1.39-.75-3-2-4.2a5.13,5.13,0,0,0-.3.82,18.29,18.29,0,0,1-2.58,7.13,8.84,8.84,0,0,0-.51,2.07,2.72,2.72,0,0,1-.54,1.22,9.76,9.76,0,0,0-3.41,5.74,1.69,1.69,0,0,1-.18.47,23.69,23.69,0,0,0-1.25,2.78,4.27,4.27,0,0,1-3,3.07,15.35,15.35,0,0,0-2.48.68c-1,.46-2.27.92-2.67,1.75s-1.09,1-1.62,1.43a2.86,2.86,0,0,1-1,.5c-4.15,1.32-8.28,2.74-12.48,3.9-6.65,1.84-12.8,4.57-17.46,9.83-2.14,2.41.56,5.93-1.12,8.67s3.2,8.64,1.92,11.56c-.39.88-2.07,8.8-1.8,9.65.35,1.09,4.22,2.79,4.16,3.83-.1,1.79-2,2.29-.76,3.77,0,0-.74-.93-.74-1m3.86-5.62.25-4.11c-.14.07,3.7-.82,3.54-.73M190,357" fill="#723e19"/><path d="M221.93,330.42c5.9,6,12.13,11.74,17.21,18.44,7.62,10,9.22,21.28,3.9,32.81s-15.16,17.09-27.76,17.82c-1.31.33-2.86.85-3.78-.29-1.08-1.33.43-2.47,1-3.64a18.48,18.48,0,0,1,5.65-6.74c-3.21,2.15-5.32,5.69-8.12,8.52-1.57,1.59-3,2.55-5.09,2.66-12-.44-22.75-3.4-29.11-14.88a18.1,18.1,0,0,1-2.46-6.67c-.44-3.66,2.09-7.81,6.05-9.91,4.22-2.25,4.22-2.25,4.78-4.78-.09,1.32-1.16,2.72-3.23,3.61a11.5,11.5,0,0,0-4.72,3.63c-.67.89-1.48,1.89-2.81,1.52-1.62-.44-.84-1.87-1-2.89-.09-.54.1-1.14-.32-1.62q-.07-23.4-.14-46.8c0-4.56,0-4.58-4.5-4.58-6.37,0-12.75,0-19.13,0-3.72,0-7.11-.7-8.66-4.69s.34-6.73,3-9.38q53-52.51,106.05-105.07c5.61-5.55,8.84-5.57,14.47-.06,4.07,4,8,8.06,12,12.09,1.23,1.44.9,2.64-.47,3.79a9.42,9.42,0,0,0-2.28,2.2,7.56,7.56,0,0,1,6.84-1.94c8.93,8.38,17.59,17,26.07,25.86,1.94,3.69-2.43,4-3.2,6.06,2.26-1.05,4.32-3.38,7.37-1.94l25.29,25.1c.94,1.63.35,2.83-.85,4.12a34,34,0,0,0-2.52,2.85,4.3,4.3,0,0,0,1.48-1.49c1.58-2.92,3.69-2.86,6.14-1.24,8.9,8.13,17.36,16.71,25.71,25.4,1.34,1.67-.05,2.61-.93,3.77a19.86,19.86,0,0,1-2.67,3.07c2.24-1.89,3.64-6.19,7.72-2.75.44.36.91.69,1.31,1.09,2.34,2.34,3.46,5,2.22,8.33-1.31,3.52-4,4.77-7.49,4.8-6.49,0-13,0-19.47,0-5.29,0-5.3,0-5.3,5.17,0,15.82.17,31.64-.07,47.45-.17,10.81-3.92,20.06-13.67,25.94a20.49,20.49,0,0,1-6.21,2.75c-11.84,2.4-23.69,2.82-35.36-1a16.08,16.08,0,0,1-7-4.13c-1.81-3.09-1.79-3.13,2-5.61.73-.7,1.75-.81,2.6-1.28a23,23,0,0,0-2.36,1.11c-2.09.62-3.29,3.88-6.2,2.09-10.6-12.15-10.77-29.5-.1-41.41,8.27-9.23,16.84-18.19,25.3-27.23s10.71-20.55,5.76-30.44C299.84,279.93,289.23,274,278,276a16.25,16.25,0,0,0-2.37.41,22.3,22.3,0,0,0-5.23,1.8,18.43,18.43,0,0,0-4.75,3.64,38.91,38.91,0,0,0-2.57,3.2,52.21,52.21,0,0,0-4,6.46c-1.26,2.37-2.09,4.29-2.89,5.67-2.25-3.83-3.46-5.84-3.46-5.84-6.37-12-12.9-17.41-22.44-16.58-11-.44-18.64,6.17-23.42,16.11-4.2,8.73-3.23,17.31,2.43,25.14,2.59,3.58,5.73,6.76,8.62,10.13" fill="#d27628"/><path d="M172.26,367.8l1.27,3.78c3-3.76,7.42-5.45,9.7-9.5a2.19,2.19,0,0,1,.93-1c1.45-.52,2.32-3.48,4.05-1.82,1.43,1.36-1.28,2.17-1.73,3.44-1,2.71-2.26,5.58-4.87,6.58-3.42,1.3-4,5.23-7.19,6.51-1,.4-.76,1.55-.9,2.42C172,374.9,172.06,371.36,172.26,367.8Z" fill="#d27628"/><path d="M205.08,399.79c3-1.87,4.49-5.22,7.21-7.42,2.37-1.93,4.42-4.25,6.69-6.31.72-.66,1.39-1.92,2.76-.48s.49,2.08-.23,3.15a3.66,3.66,0,0,1-2.91,2c-.82.06-6,7-5.78,7.6.44,1.39,1.74.62,2.62.91C212,400.43,208.55,399.86,205.08,399.79Z" fill="#d27628"/><path d="M309.74,243.35c-3.18,1-5.41,3.44-8,5.25-.93.64-1.36,1.46-2.42.45a1.85,1.85,0,0,1-.14-3c1.43-1.45,2.86-2.9,4.38-4.26a5.18,5.18,0,0,0,2-2.6Z" fill="#d27628"/><path d="M279.5,213.37c-2.36,1.82-5.54,2.55-7.14,5.4-.57,1-1.3,2-2.61.74a2.13,2.13,0,0,1-.15-3.3c1.48-1.56,3-3.07,4.58-4.55a3.43,3.43,0,0,0,1.23-2.34A17.47,17.47,0,0,1,279.5,213.37Z" fill="#d27628"/><path d="M369.11,302.17c-1.65.17-3.39-.66-4,2.3-.44,2.06-4.12,2.14-5.15,4.63-.13.32-1.12-.48-1.55-1a1.65,1.65,0,0,1,.11-2.43c1.4-1.46,2.81-2.92,4.32-4.28a5.78,5.78,0,0,0,2.16-3.31A17.73,17.73,0,0,1,369.11,302.17Z" fill="#d27628"/><path d="M339.28,272.68c-1.64-.11-3.13-.37-3.91,1.87s-3.72,2.43-4.55,4.76c-.24.68-1,.24-1.4-.15-.89-.82-1.55-1.83-.64-2.94a54.37,54.37,0,0,1,4.15-4.44c1-1,2-1.85,2.09-3.33Z" fill="#d27628"/><path d="M280.23,386.92c.17,1.06.65,2.24-.85,2.74s-1.34,1.78-1.3,3a11,11,0,0,1-3.95-3.69c2.16-.29,3.31-3.64,6.1-2Z" fill="#d27628"/><path d="M337.62,331.78c-1.17,1-1.82,3-3.8,3.33-1.39.25-2.62.91-2.8,2.13-.47,3.19-2.89,5.09-5,6.52-3,2-5.11,4.87-8,6.93-.68.48-1.13.66-1.72.08s-1.21-1.34-.45-2.06c6.39-6.08,11.72-13.26,19-18.39C335.64,329.77,337.5,330.59,337.62,331.78Z" fill="#d27628"/><path d="M286.59,382.45A11.46,11.46,0,0,1,285.1,381c-.66-.91-.19-1.71.45-2.43,1.35-1.51,3.3-2.32,4.4-4.18.57-1,1.55-2.16,3-1.68.69.23,1.8,1.11,1.72,1.43-.36,1.4-1.09,3.21-2.34,3.47-2.57.54-4.31,1.55-5,4.16C287.32,382,286.93,382.17,286.59,382.45Z" fill="#d27628"/><path d="M280.23,386.92c.35-.9-2-3.29,1.4-2.53.61.14.79-.35.72-.84-.11-.78-.48-1.76.61-1.95s1.73.89,2.35,1.66.13,1.47-.44,2.08c-1.26,1.35-2.52,2.71-4.64,1.58Z" fill="#d27628"/><path d="M190.88,355.55c.71.88,2.24,1,2.2,2a2.28,2.28,0,0,1-2.07,1.95,1.74,1.74,0,0,1-1.81-2A2.57,2.57,0,0,1,190.88,355.55Z" fill="#d27628"/><circle cx="207.77" cy="147.62" r="35.62" fill="#d27628"/><circle cx="304.1" cy="147.62" r="35.62" fill="#d27628"/><circle cx="140.74" cy="217.84" r="35.62" fill="#d27628"/><circle cx="371.26" cy="217.84" r="35.62" fill="#d27628"/></g></svg>