<svg xmlns="http://www.w3.org/2000/svg" xmlns:xlink="http://www.w3.org/1999/xlink" viewBox="0 0 512 512"><defs><clipPath id="clip-path"><rect x="135.66" y="112" width="240.68" height="240.68" fill="none"/></clipPath><linearGradient id="linear-gradient" x1="334.69" y1="354.19" x2="341.94" y2="302.23" gradientTransform="translate(323.24 -147.75) rotate(45)" gradientUnits="userSpaceOnUse"><stop offset="0" stop-color="#7fc342"/><stop offset="1" stop-color="#bed631"/></linearGradient><linearGradient id="linear-gradient-2" x1="150.92" y1="232.34" x2="361.08" y2="232.34" gradientTransform="matrix(1, 0, 0, 1, 0, 0)" xlink:href="#linear-gradient"/><linearGradient id="linear-gradient-3" x1="339.37" y1="381.07" x2="470.08" y2="381.07" gradientUnits="userSpaceOnUse"><stop offset="0.34" stop-color="#086a37"/><stop offset="0.85" stop-color="#233b20"/></linearGradient><clipPath id="clip-path-3"><path d="M258.52,189V313.85A90.68,90.68,0,0,0,301.88,301V189Z" fill="none"/></clipPath><linearGradient id="linear-gradient-4" x1="264.32" y1="327.2" x2="298.22" y2="151.77" gradientUnits="userSpaceOnUse"><stop offset="0.16" stop-color="#086a37"/><stop offset="0.85" stop-color="#233b20"/></linearGradient><linearGradient id="linear-gradient-5" x1="339.72" y1="305.81" x2="339.77" y2="305.81" gradientTransform="matrix(1, 0, 0, 1, 0, 0)" xlink:href="#linear-gradient"/><linearGradient id="linear-gradient-6" x1="261.14" y1="267.75" x2="390.93" y2="267.75" gradientTransform="matrix(1, 0, 0, 1, 0, 0)" xlink:href="#linear-gradient"/><clipPath id="clip-path-4"><path d="M252.44,218.17V313.9c-1.35,0-2.71-.12-4.06-.22a90.86,90.86,0,0,1-39.3-12V218.17Z" fill="none"/></clipPath><linearGradient id="linear-gradient-7" x1="170.1" y1="305.43" x2="278.35" y2="235.11" gradientTransform="matrix(1, 0, 0, 1, 0, 0)" xlink:href="#linear-gradient"/><linearGradient id="linear-gradient-8" x1="-177.65" y1="280.43" x2="-345.98" y2="279.65" gradientTransform="matrix(-1, 0, 0, 1, -59.56, 0)" gradientUnits="userSpaceOnUse"><stop offset="0.78" stop-color="#086a37"/><stop offset="0.93" stop-color="#233b20"/></linearGradient><linearGradient id="linear-gradient-9" x1="-270.19" y1="307.65" x2="-269.9" y2="307.65" gradientTransform="matrix(-1, 0, 0, 1, -59.56, 0)" xlink:href="#linear-gradient-3"/><clipPath id="clip-path-5"><path d="M173.41,240.72a82,82,0,0,0,18.82,43.74,83.28,83.28,0,0,0,10.35,10.31v-54Z" fill="none"/></clipPath><linearGradient id="linear-gradient-10" x1="171.01" y1="278.78" x2="214.85" y2="250.3" gradientTransform="matrix(1, 0, 0, 1, 0, 0)" xlink:href="#linear-gradient"/><linearGradient id="linear-gradient-11" x1="171.37" y1="271.78" x2="502.17" y2="271.78" gradientUnits="userSpaceOnUse"><stop offset="0.49" stop-color="#086a37"/><stop offset="0.85" stop-color="#233b20"/></linearGradient><clipPath id="clip-path-6"><path d="M309.14,296.78A82.65,82.65,0,0,0,308.85,170V297Z" fill="none"/></clipPath><linearGradient id="linear-gradient-12" x1="253.87" y1="269.2" x2="350.33" y2="206.53" gradientTransform="matrix(1, 0, 0, 1, 0, 0)" xlink:href="#linear-gradient"/><linearGradient id="linear-gradient-13" x1="-441.01" y1="251.79" x2="-278.01" y2="251.79" gradientTransform="matrix(-1, 0, 0, 1, -16.88, 0)" gradientUnits="userSpaceOnUse"><stop offset="0" stop-color="#086a37"/><stop offset="0.78" stop-color="#233b20"/></linearGradient><linearGradient id="linear-gradient-14" x1="2259.66" y1="263.32" x2="2259.7" y2="263.32" gradientTransform="matrix(-1, 0, 0, 1, 2574.31, 0)" gradientUnits="userSpaceOnUse"><stop offset="0.24" stop-color="#086a37"/><stop offset="0.47" stop-color="#233b20"/></linearGradient><linearGradient id="linear-gradient-15" x1="2259.73" y1="263.49" x2="2259.81" y2="263.49" xlink:href="#linear-gradient-14"/><linearGradient id="linear-gradient-16" x1="2260.61" y1="265.83" x2="2260.63" y2="265.83" xlink:href="#linear-gradient-14"/><linearGradient id="linear-gradient-17" x1="2259.08" y1="266.03" x2="2259.16" y2="266.03" xlink:href="#linear-gradient-14"/><linearGradient id="linear-gradient-18" x1="2258.08" y1="269.21" x2="2258.1" y2="269.21" xlink:href="#linear-gradient-14"/><linearGradient id="linear-gradient-19" x1="2205.99" y1="277.32" x2="2266.65" y2="277.32" gradientTransform="matrix(-1, 0, 0, 1, 2574.31, 0)" gradientUnits="userSpaceOnUse"><stop offset="0.35" stop-color="#086a37"/><stop offset="1" stop-color="#233b20"/></linearGradient><linearGradient id="linear-gradient-20" x1="2248.98" y1="290.34" x2="2248.98" y2="290.34" xlink:href="#linear-gradient-14"/><linearGradient id="linear-gradient-21" x1="2240.19" y1="272.22" x2="2240.41" y2="272.22" xlink:href="#linear-gradient-14"/><linearGradient id="linear-gradient-22" x1="2237.74" y1="271.13" x2="2237.82" y2="271.13" xlink:href="#linear-gradient-14"/><linearGradient id="linear-gradient-23" x1="2239.51" y1="271.92" x2="2240.19" y2="271.92" xlink:href="#linear-gradient-14"/><linearGradient id="linear-gradient-24" x1="2239.02" y1="271.49" x2="2239.14" y2="271.49" xlink:href="#linear-gradient-14"/><linearGradient id="linear-gradient-25" x1="2237.82" y1="271.3" x2="2239.02" y2="271.3" xlink:href="#linear-gradient-14"/><linearGradient id="linear-gradient-26" x1="2239.14" y1="271.6" x2="2239.51" y2="271.6" xlink:href="#linear-gradient-14"/><linearGradient id="linear-gradient-27" x1="2241.63" y1="285.16" x2="2241.7" y2="285.16" xlink:href="#linear-gradient-14"/><linearGradient id="linear-gradient-28" x1="2242.39" y1="285.72" x2="2242.57" y2="285.72" xlink:href="#linear-gradient-14"/><linearGradient id="linear-gradient-29" x1="2243" y1="285.62" x2="2243.17" y2="285.62" xlink:href="#linear-gradient-14"/><linearGradient id="linear-gradient-30" x1="2241.83" y1="285.48" x2="2242.07" y2="285.48" xlink:href="#linear-gradient-14"/><linearGradient id="linear-gradient-31" x1="2241.19" y1="284.17" x2="2241.55" y2="284.17" xlink:href="#linear-gradient-14"/><linearGradient id="linear-gradient-32" x1="2240.82" y1="291.2" x2="2240.83" y2="291.2" xlink:href="#linear-gradient-14"/><linearGradient id="linear-gradient-33" x1="2252.93" y1="286.6" x2="2253.01" y2="286.6" xlink:href="#linear-gradient-14"/><linearGradient id="linear-gradient-34" x1="2257.11" y1="282.23" x2="2257.24" y2="282.23" xlink:href="#linear-gradient-14"/></defs><g id="icon_with_label"><path d="M144.48,381.51l6.37-13.91h1.45l6.36,13.91h-1.55l-5.85-13.05h.6L146,381.51ZM147,377.8l.44-1.2h8.09l.44,1.2Z" fill="#075b2f"/><path d="M161,381.51V367.6h1.21l9.6,12.08h-.63V367.6h1.45v13.91h-1.21l-9.59-12.08h.64v12.08Z" fill="#075b2f"/><path d="M177.13,381.51V367.6h1.47v13.91Z" fill="#075b2f"/><path d="M183.14,381.51V367.6h1.21l6.36,10.85h-.63l6.3-10.85h1.21v13.91h-1.41v-11.7h.34l-5.81,9.93H190l-5.85-9.93h.38v11.7Z" fill="#075b2f"/><path d="M199.9,381.51l6.36-13.91h1.45l6.37,13.91h-1.56l-5.84-13.05h.6l-5.85,13.05Zm2.5-3.71.44-1.2h8.09l.44,1.2Z" fill="#075b2f"/><path d="M216.38,381.51V367.6h1.47v12.64h7.8v1.27Z" fill="#075b2f"/><path d="M233.3,381.51V367.6h5.21a7.36,7.36,0,0,1,3,.57,4.34,4.34,0,0,1,2,1.63,4.63,4.63,0,0,1,.69,2.57,4.58,4.58,0,0,1-.69,2.54,4.41,4.41,0,0,1-2,1.63,7.2,7.2,0,0,1-3,.58h-4.39l.65-.69v5.08Zm1.47-5-.65-.71h4.35a4.85,4.85,0,0,0,3.17-.9,3.57,3.57,0,0,0,0-5.14,4.79,4.79,0,0,0-3.17-.91h-4.35l.65-.7Z" fill="#075b2f"/><path d="M253.66,381.63a7.76,7.76,0,0,1-2.91-.53,6.74,6.74,0,0,1-2.33-1.49,7.08,7.08,0,0,1-1.53-2.24,7.58,7.58,0,0,1,0-5.62,6.85,6.85,0,0,1,3.85-3.74,8.43,8.43,0,0,1,5.83,0,7,7,0,0,1,2.31,1.48,6.71,6.71,0,0,1,1.53,2.25,7.5,7.5,0,0,1,0,5.64,6.57,6.57,0,0,1-1.53,2.24,6.88,6.88,0,0,1-2.31,1.48A7.69,7.69,0,0,1,253.66,381.63Zm0-1.31a6.06,6.06,0,0,0,2.32-.43,5.4,5.4,0,0,0,1.85-1.21,5.59,5.59,0,0,0,1.22-1.83,6.21,6.21,0,0,0,0-4.59,5.65,5.65,0,0,0-1.22-1.82,5.42,5.42,0,0,0-1.85-1.22,6.62,6.62,0,0,0-4.64,0,5.51,5.51,0,0,0-1.87,1.22,5.71,5.71,0,0,0-1.24,1.82,6.31,6.31,0,0,0,0,4.58,5.69,5.69,0,0,0,1.24,1.84,5.48,5.48,0,0,0,1.87,1.21A6.1,6.1,0,0,0,253.66,380.32Z" fill="#075b2f"/><path d="M264.26,381.51V367.6h5.21a7.36,7.36,0,0,1,3,.57,4.4,4.4,0,0,1,2,1.63,4.63,4.63,0,0,1,.69,2.57,4.58,4.58,0,0,1-.69,2.54,4.46,4.46,0,0,1-2,1.63,7.2,7.2,0,0,1-3,.58h-4.39l.65-.69v5.08Zm1.47-5-.65-.71h4.35a4.85,4.85,0,0,0,3.17-.9,3.57,3.57,0,0,0,0-5.14,4.79,4.79,0,0,0-3.17-.91h-4.35l.65-.7Z" fill="#075b2f"/><path d="M284.15,381.63a5.68,5.68,0,0,1-4.2-1.53,6.14,6.14,0,0,1-1.53-4.53v-8h1.47v7.91a5.15,5.15,0,0,0,1.11,3.64,4.84,4.84,0,0,0,6.31,0,5.15,5.15,0,0,0,1.11-3.64V367.6h1.43v8a6.18,6.18,0,0,1-1.52,4.53A5.63,5.63,0,0,1,284.15,381.63Z" fill="#075b2f"/><path d="M294.29,381.51V367.6h1.47v12.64h7.79v1.27Z" fill="#075b2f"/><path d="M303.77,381.51l6.36-13.91h1.45L318,381.51H316.4l-5.85-13.05h.6l-5.85,13.05Zm2.5-3.71.44-1.2h8.09l.44,1.2Z" fill="#075b2f"/><path d="M322.26,381.51V368.88h-4.89V367.6h11.25v1.28h-4.89v12.63Z" fill="#075b2f"/><path d="M331,381.51V367.6h1.47v13.91Z" fill="#075b2f"/><path d="M343.06,381.63a7.69,7.69,0,0,1-2.91-.53,6.85,6.85,0,0,1-3.86-3.73,7.45,7.45,0,0,1,0-5.62,6.71,6.71,0,0,1,1.53-2.25,7,7,0,0,1,2.32-1.49,8.4,8.4,0,0,1,5.82,0,7.08,7.08,0,0,1,2.32,1.48,6.86,6.86,0,0,1,1.53,2.25,7.5,7.5,0,0,1,0,5.64,6.71,6.71,0,0,1-1.53,2.24A6.92,6.92,0,0,1,346,381.1,7.63,7.63,0,0,1,343.06,381.63Zm0-1.31a6.1,6.1,0,0,0,2.32-.43,5.58,5.58,0,0,0,3.07-3,6.34,6.34,0,0,0,0-4.59,5.67,5.67,0,0,0-3.07-3,6.65,6.65,0,0,0-4.65,0,5.61,5.61,0,0,0-1.87,1.22,5.53,5.53,0,0,0-1.23,1.82,6.18,6.18,0,0,0,0,4.58,5.51,5.51,0,0,0,1.23,1.84,5.58,5.58,0,0,0,1.87,1.21A6.15,6.15,0,0,0,343.06,380.32Z" fill="#075b2f"/><path d="M353.66,381.51V367.6h1.21l9.6,12.08h-.63V367.6h1.45v13.91h-1.21l-9.59-12.08h.64v12.08Z" fill="#075b2f"/><path d="M235.21,395.18a4.58,4.58,0,0,1-1.61-.28,3,3,0,0,1-1.2-.7l.32-.62a3.15,3.15,0,0,0,1.07.66,4,4,0,0,0,1.42.26,3.17,3.17,0,0,0,1.16-.18,1.42,1.42,0,0,0,.66-.48,1.13,1.13,0,0,0,.21-.67,1,1,0,0,0-.26-.71,1.7,1.7,0,0,0-.66-.42,6.52,6.52,0,0,0-.91-.28l-1-.25a4.32,4.32,0,0,1-.91-.36,1.85,1.85,0,0,1-.67-.6,1.7,1.7,0,0,1-.25-1,2,2,0,0,1,.29-1,2.12,2.12,0,0,1,.92-.75,3.73,3.73,0,0,1,1.57-.29,4.46,4.46,0,0,1,1.26.18,3.58,3.58,0,0,1,1.08.49l-.27.64a3.34,3.34,0,0,0-1-.48,3.92,3.92,0,0,0-1-.15,3,3,0,0,0-1.12.18,1.5,1.5,0,0,0-.66.5,1.17,1.17,0,0,0-.21.69,1,1,0,0,0,.26.71,1.67,1.67,0,0,0,.67.42,8.28,8.28,0,0,0,.91.27l1,.26a4.83,4.83,0,0,1,.9.36,1.92,1.92,0,0,1,.67.59,1.65,1.65,0,0,1,.26,1,1.78,1.78,0,0,1-.31,1,2.12,2.12,0,0,1-.92.75A3.8,3.8,0,0,1,235.21,395.18Z" fill="#7fc342"/><path d="M243.45,395.18a3.08,3.08,0,0,1-2.27-.83,3.3,3.3,0,0,1-.83-2.46v-4.32h.79v4.29a2.78,2.78,0,0,0,.61,2,2.21,2.21,0,0,0,1.7.64,2.24,2.24,0,0,0,1.72-.64,2.78,2.78,0,0,0,.6-2v-4.29h.78v4.32a3.34,3.34,0,0,1-.82,2.46A3.08,3.08,0,0,1,243.45,395.18Z" fill="#7fc342"/><path d="M249.61,395.12v-7.55h2.82a3.41,3.41,0,0,1,2.26.68,2.34,2.34,0,0,1,.83,1.9,2.45,2.45,0,0,1-.37,1.38,2.4,2.4,0,0,1-1.07.88,4,4,0,0,1-1.65.31h-2.38l.35-.37v2.77Zm.79-2.7-.35-.38h2.36a2.59,2.59,0,0,0,1.72-.49,2,2,0,0,0,0-2.8,2.59,2.59,0,0,0-1.72-.49h-2.36l.35-.38Zm4.36,2.7-1.94-2.74h.87l1.95,2.74Z" fill="#7fc342"/><path d="M260.2,395.12l-3.34-7.55h.86l3.13,7.1h-.47l3.15-7.1h.81L261,395.12Z" fill="#7fc342"/><path d="M266.08,395.12v-7.55h5.17v.69h-4.38v6.16h4.55v.7Zm.71-3.5v-.68h4v.68Z" fill="#7fc342"/><path d="M275.64,395.12v-2.81l.18.5-3.21-5.24h.86l2.81,4.6h-.45l2.82-4.6h.8l-3.21,5.24.18-.5v2.81Z" fill="#7fc342"/><g clip-path="url(#clip-path)"><rect x="326.96" y="292.23" width="26.03" height="48.16" transform="translate(-124.09 333.04) rotate(-45)" fill="url(#linear-gradient)"/><path d="M181.69,306.65a105.08,105.08,0,1,0,0-148.61A105.1,105.1,0,0,0,181.69,306.65ZM194,294.37a87.72,87.72,0,1,1,124.06,0A87.72,87.72,0,0,1,194,294.37Z" fill="url(#linear-gradient-2)"/><path d="M463.69,440h0a22,22,0,0,0,0-31l-87-87a22,22,0,0,0-31,0h0a22,22,0,0,0,0,31l87,87A22,22,0,0,0,463.69,440Z" fill="url(#linear-gradient-3)"/><circle cx="256" cy="232.34" r="87.7" transform="translate(-33.23 42.96) rotate(-9.01)" fill="none"/><rect x="135.66" y="112" width="240.68" height="240.68" fill="none"/><rect x="135.66" y="112" width="240.68" height="240.68" fill="none"/><g clip-path="url(#clip-path-3)"><path d="M258.52,189V313.85A90.68,90.68,0,0,0,301.88,301V189Z" fill="url(#linear-gradient-4)"/><path d="M339.75,305.8h0C339.71,305.84,339.71,305.84,339.75,305.8Z" fill="url(#linear-gradient-5)"/><path d="M390.74,277.23a16.47,16.47,0,0,0-1.3-3,11.2,11.2,0,0,0-1.92-2.71c-.82-.84-1.51-1.8-2.33-2.63-.58-.58-.92-1.32-1.45-1.94a9.73,9.73,0,0,1-.81-1.1c-.36-.57-.74-1.12-1.09-1.7s-.58-1.08-.86-1.63-.56-1.44-1-2.12a9.9,9.9,0,0,1-.5-1.54,18,18,0,0,1-.76-3.54c-.07-.46-.11-.91-.18-1.37s.06-1.08-.06-1.61a7.32,7.32,0,0,1,0-1.55v-1.3c0-1.15,0-2.3,0-3.45a31,31,0,0,0-.52-4.18,20.06,20.06,0,0,0-.58-2.15c-.16-.58-.29-1.17-.45-1.76a13.91,13.91,0,0,0-1.15-2.59,9.84,9.84,0,0,0-3.93-4.25c-4.08-2.25-8.57-.84-12.86-.3s-8.95.11-13.22-.11c-7.17-.36-14.23.34-21.38-.58-5.73-.73-11-1.65-16.62.31-3.12,1.08-5.93,3-9,4.28a24,24,0,0,1-5.26,1.55c-2,.36-5,.89-6.32,2.59-.57.73-.74,1.63-1.38,2.36a14.21,14.21,0,0,0-2.39,2.91c-.61,1.22-1.1,2.49-1.59,3.77-.86,2.24-1.57,4.54-2.4,6.8a65.52,65.52,0,0,1-5,9.62c-1.86,3.28-3.56,6.87-5.86,9.67a7.84,7.84,0,0,0-2-4.7c-1,1-1.19,2.6-1.51,3.88-.44,1.76-1.18,3.27-1,5.05a9,9,0,0,0-3-.54c-.13.79.92,1.64,1.46,2.13a5.62,5.62,0,0,0,1.46.93,10.89,10.89,0,0,0-.48,3.65c.23,1.55,1,2.8.94,4.47a21,21,0,0,0-.14,3.78,15,15,0,0,1-.1,3,24.44,24.44,0,0,0-.12,4c.19,1.86.37,2.45,2.21,2.52,1.45.05,2.37.68,3.72,1a3.23,3.23,0,0,0,3.5-1.82c.35-1-.16-2.39.09-3.41a8.09,8.09,0,0,1,1.57-2.76c.72-.87,1.61-1.56,2.36-2.41a13.57,13.57,0,0,0,1.81-3.12c1.24-2.37,3.64-4,4.42-6.56.49-1.64-.07-4.25,1.72-5.32,1.48-.89,3.85,1.38,5.68,0,1.2.86,1.43,1.79,3,2.08,1.2.22,3.08-.11,4,.89s.88,4.53,1,6c.14,2.68.17,5.4.25,8.08a8.06,8.06,0,0,1-1.34,5.36c-.84,1.28-2.27,2.69-2.16,4.34.91.12,1.81-.08,2.74,0a8.09,8.09,0,0,0,3.06.12c1.84-.53,1.55-2,1.93-3.5.27-1.09,1.06-1,1.43-1.81.27-.63-.27-2.51-.34-3.21a76.35,76.35,0,0,1-.61-7.86,28.34,28.34,0,0,1,.36-5,14.42,14.42,0,0,1,1-3.93c.4-.65,1.29-.82,1.94-1.18,1.32-.72,1.56-1.56,2.53-2.69.32.29.21.61.26,1,.11.74.49,1.44.65,2.18a16.73,16.73,0,0,0,2.75,5.79c.39.56.91,1,1.31,1.58a5.29,5.29,0,0,0,1.34,1.37c.34.24.46.3.47.75,0,.81,0,1.63,0,2.43a8.33,8.33,0,0,1-.09,1.58c-.11.54-.13,2.27-.3,2.79-.06.15-.15.28-.2.44s0,.34,0,.5a7.7,7.7,0,0,1-.48,1.2c-.11.33-.25.65-.35,1s-.3.89-.09,1.16a.48.48,0,0,0,.36.12c.38,0,.79-.08,1.18-.07a13.73,13.73,0,0,0,2-.22c.47-.06.91-.17,1.37-.27a5.05,5.05,0,0,0,1.09-.18c.22-.18.09-.44,0-.71a18.77,18.77,0,0,1,0-5.24c.15-.88.29-1.77.4-2.65a4.35,4.35,0,0,0,.06-1.44c-.24-1-1.08-1.57-1.54-2.42-.83-1.53-1.55-3.13-2.43-4.64a14.31,14.31,0,0,1-1-1.76c-.19-.47-.37-.94-.53-1.42a24.31,24.31,0,0,1,0-2.75,29.31,29.31,0,0,1,.58-3.85l0,0a32.63,32.63,0,0,0,3.74,2.74,26.46,26.46,0,0,0,2.64,1.23c.57.27,1.13.58,1.71.85a16.68,16.68,0,0,0,2.77.75,19.38,19.38,0,0,0,4.42.61c.73,0,1.45-.11,2.19-.13a14.69,14.69,0,0,0,3.88-.72c.47-.15.9-.37,1.35-.56s.57-.39.89-.51a23.62,23.62,0,0,1,2.52-.41c.72-.17,1.39-.47,2.12-.61s1.38-.34,2.07-.49c.21,0,.48-.16.68-.07a1.54,1.54,0,0,1,.48.75,9.52,9.52,0,0,1,.46,1.82c.1.65.27,1.26.39,1.9a21.36,21.36,0,0,1-1.09,10.52c-.46,1.3-1.13,2.54-1.64,3.79a27.42,27.42,0,0,1-1.93,4.6,29.2,29.2,0,0,1-3.78,5c-.67.65-.74.76-.87,1.45-.09.53.18,1-.09,1.61,1.48,0,3.49,1.05,4.8,0,.79-.66,1-1.25,2-1.82.46-.27,1.87-.83,2-1.43-.26,1.28-1.66,1.32-1.42,2.87,2.11-.08,4.48.31,6.6-.16a4.24,4.24,0,0,0,2.27-2.57c.82-2.6.12-2.94,1-5.48.76-2.06.9-4.17,1.45-6.27a7.76,7.76,0,0,1,.44-1.31c.48-1,1-2.08,1.58-3.09a34.33,34.33,0,0,0,2.9-6.09,9.93,9.93,0,0,0,.52-2.7c0-.84-.14-1.67-.13-2.52a19,19,0,0,0-.4-3.36,14,14,0,0,1,.16-4,17.74,17.74,0,0,1,.84-3.94,12.5,12.5,0,0,1,1.78-3c.3-.41.53-.84.86-1.23s.56-.65.81-1,.7-1,1.06-1.45a13.3,13.3,0,0,0,.72-1.12c.36-.59.75-1.15,1.1-1.75s.4-1.12.65-1.67a31,31,0,0,0,1.67-4.71c.24-.88.5-1.76.79-2.64a13.76,13.76,0,0,0,.58-2,13,13,0,0,0,.27-1.64c0-.2-.1-.46.1-.55.45-.18,1,1.24,1.17,1.52a5.75,5.75,0,0,1,.32,1.63c0,.35.09.67.1,1a5.78,5.78,0,0,0,0,.93,20.52,20.52,0,0,1,.1,3.42c0,.52,0,1.05,0,1.56s.2,1.16.25,1.74.15.87.22,1.3.06,1,.17,1.44.17,1,.31,1.5a11.16,11.16,0,0,0,.32,1.13c.32.82.61,1.63,1,2.42a11.77,11.77,0,0,0,.88,1.33c.28.42.49.87.78,1.27s.55.8.82,1.21.65.8.95,1.23.54.87.84,1.29a4.2,4.2,0,0,1,.48.78,3.88,3.88,0,0,0,.3.48,4,4,0,0,1,.24.57c.15.33.3.64.43,1a6.26,6.26,0,0,1,.23,1.22,3.82,3.82,0,0,1,0,1.12c-.12.68-.28,1.36-.42,2a12.24,12.24,0,0,0-.38,1.27,10.11,10.11,0,0,0-.14,1.65,8.32,8.32,0,0,0,.21,2.28,7.32,7.32,0,0,0,.39,1.31c.17.33.37.63.55,1a3.49,3.49,0,0,0,.64.75,8.87,8.87,0,0,0,.93.91,8.4,8.4,0,0,0,1.09.7c.29.14.59.19.87.35s.82.54.76.93a1.39,1.39,0,0,0,.13-.44c.05-.18.16-.24.24-.39.22-.4.27-.89.48-1.31a9.69,9.69,0,0,0,.85-3.14A8.94,8.94,0,0,0,390.74,277.23Zm-36.85,13.36c-.63,1.47-.82,4.06-2.18,5a8.23,8.23,0,0,1-.92,1.56c.6-1.95,1.37-3.86,2.16-5.82s.88-4.39,2.27-5.86A16,16,0,0,1,353.89,290.59Z" fill="url(#linear-gradient-6)"/></g><g clip-path="url(#clip-path-4)"><path d="M252.42,218.17V313.9c-1.35,0-2.7-.12-4.06-.22a90.82,90.82,0,0,1-39.29-12V218.17Z" fill="url(#linear-gradient-7)"/><path d="M248.69,285l-.34-.19-.4.06V285a20.16,20.16,0,0,1-4.21-3.31v0l-2-2.47c-.1-.15-.18-.31-.28-.46h0l.05-.1v0l.42.5.28.4,0,0h.05l.17.2h.1v-.11l-.46-.53-1.13-1.65-2.32-5.72,0,0h-.05l-.38-1.1-.1-.05-.05.09,1.25,3.69.09.05.08-.06.13.35v0l.74,1.91,0,.05h.06l.08.2-.05,0v.07l.27.4.23.53,0,0c-.21-.36-.47-.71-.66-1.09a38,38,0,0,1-2.6-7.3l0-.1,0,0,.2.2H238v-.14l-.44-.46a3,3,0,0,1,.77-.68h0l.06,0,0-.05a1.64,1.64,0,0,1,.22-.14h.07l.09-.09c.15-.08.31-.16.48-.23l-.75.72v.07h0l-.6.23,0,0v0h-.19l-.07.08.08.08H238l0,0,0,0,1.52-.62,0-.08-.09,0-.95.35.88-.84.41-.15,2.64-.8-.69.37-1.69.82,0,.1.08,0,2.34-1.15,0-.09,0,0,.16-.08v0l.29-.08,0,0,1.59-.48h.59l.5-.32v-.06h-.05l-.58.3-.2,0,.4-.11a1.83,1.83,0,0,0-.5-.39l.32-.46h.05l.59.7.06,0,0-.06-.31-.38h.06l.12-.12v-.08h-.09l-.11.11v.06l-.3-.36h-.05l.07-.09v-.06h-.07l-.09.14h-.17v0h-.06l0,0-.59,0,0,.05.05,0,.45,0-.33.24a3.31,3.31,0,0,0-.45-.12l.41-.38v-.06h-.06l-.46.41-.34-.06,0,0,0,0,.11-.07.05-.16.07-.06v-.07h0l0-.08-.08,0-1,.16v0h-.05l0,0-1.16.17-.47-.06v0h-.06c-.55-.09-1.09-.2-1.63-.32l-1.72-.4.18-.17v-.05h-.06l-.22.2-.53-.12v-.07h-.05l0,0h0l1.53-1.2,3.31-1.06.84-.11,0-.05h0l.21-.24h0l-1.13.33-.45.06,0,.05,0,0-2.13.63.19-.11v0a20.81,20.81,0,0,1,3.17-1.09c0-.19,0-.37,0-.55l-.68-.11,1-.09,0,0,0,0,.22.47-.18.45.27-.31-.34-.71h0v0l-1.33.15c-2.91-.51-5.94-1.33-8.44.13a10,10,0,0,1-1.24.58l0,0-3,.43-.5.28a14.24,14.24,0,0,1-1.6,0c-.37,0-.72-.12-1.08-.17v0l-5.21-1.21-.07.05h0l-.89-.26.05,0-.12-.21-7.38-2h.12l0,0,0,0-.33,0-.82-.22.46,0,0-.05,0-.05-.94-.06-.34-.09c-.79-.23-1.57-.46-2.36-.67l.08-.05,0,0,1.11.33.13-.07-.07-.14-3.62-1.06-.12.07.07.12,1.85.55-2.71-.56c-2-.5-4-1-6-1.46-1.65-.39-3.32-.74-5-1l.47,0,.11-.1-.11-.11-1.91-.1-.14,0h0l0,0-6.64-.34a7.66,7.66,0,0,0-2.31-.22c-.37,0-.74,0-1.11,0l-.73,0-.07.07h0a63.37,63.37,0,0,0-6.59-.53,13.82,13.82,0,0,0-2-.11c-.11,0-.21,0-.32,0l-.07,0-.45.1c-.5.06-1,.13-1.49.22h0l-.12,0-3.33.73c-.87.19-1.73.4-2.59.64l2.34-.69.07-.14-.13-.08-6,1.79-.07.13.12.07,1.54-.46c-1.11.36-2.21.74-3.31,1.14l0-.05-.16-.05-1.46.68a20.18,20.18,0,0,0-7.33,3.13,9.79,9.79,0,0,0-2.78,2.18c-.27.24-.53.51-.79.77l-1.38,1.08-1.06,1,0,0v.05l-.34.51-.43.42-1.89,2.21v.06h0L142,266.4l-.56.83c-2.52,3-5,6.41-4.12,9.95.34,1.42.69,2.84,1,4.26v.08l0,0h0c0,.22.11.43.16.64l.13,1.57.05.05,0-.05,0-.15,0,0v-.14l.46,1.6,0,.27,0,0,0,0a.08.08,0,0,0,0,0l-.05.65,0,0,0,0,0-.31a7,7,0,0,1,.07,2.42,7.17,7.17,0,0,0-.37,2.32,1.6,1.6,0,0,0,.1.31l-.31,1.48,0,.06.07,0,.38-1h0l-.05.3,0,.05.06,0,0-.13a.32.32,0,0,1,0,.09l.15.32-.18,1.6,0,0,0,0,.15-1.36h0v0l.1.22,0,.5h0v.33l0,.05.05-.05v-.45l.22,2,0,0,0,0-.22-2v0l.12,1.17,0,0,0,0-.09-.91c.26.6.54,1.2.8,1.81l.09,1,.05,0,0,0,0-.36.14.45,0,.22,0,0h0v0l0,0,0,0,0-.06,0-.05a1.54,1.54,0,0,0,.08.19c0-.1,0-.2,0-.31l0,0,.08.16.26,1.36.05,0,0,0h0l0,0v-.09h0l0,0,0-.4,0-.16v0l.05,0,0,0-.05-.28,0-.17h0v0l0-.08.59-4.34s0,0,0-.05l-.09,4,0,.05.05-.05.21-4.43c.08-.16.13-.33.2-.49l.4,2.15.06,0,0-.05-.19-3.09a5.84,5.84,0,0,0,.14-.8l.57,1.34.06,0,0-.06-.7-2.14v-.08c0-.13-.11-.25-.15-.37l-.11-.34V287l0,0h0l-.87-2.56-.06,0,0,.06.59,1.79c-.2-.35-.41-.69-.6-1.05a8.35,8.35,0,0,1-.46-1.11l-.12-1.2,0,0h0l-.14-.91,1.78,4.38-.38-.7h0l0,.05.86,1.59.05,0,0-.05-2.32-5.63-.43-2.87,0,0,0,.06.38,2.61h0v0l0,.12.35,2.19a21.72,21.72,0,0,1-.84-5.29,13.54,13.54,0,0,1,1.34-7.46,16,16,0,0,0,.06,4.31l-.26-.79-.05,0,0,0,.44,1.55v.09h0c.11.67.24,1.33.38,2l.09.55v.06h0v0h0c0,.14.09.28.12.42v0l0,.05c.08.34.2.68.28,1l-.47-1.18,0,0,0,0,.69,1.72c.42,1.65.83,3.31,1.36,4.93.09.28.22.55.32.82l.08.73,1.09,2.38.14,0,0-.13-.63-1.13.5.67.28.27.16.75,0,0,.06,0-.13-.56.19.18.29.41.11.19.18,1.22.07,0,.05.07-.15-1,.63,1.76,0,.43.71,2.2.23.37.12.15.14,1.83-.1-1.78.11.14,0,0h0v0l-.08,1.83v.05l-.16,4,.05.06.06-.06.12-2.79.13,2.57v.15a8.31,8.31,0,0,0-.44,3.38c.1.67.21,1.33.31,2a.89.89,0,0,0,.16.48s.06,0,.08,0v.21l0,0,0,0,1,0,0,.05v.06h0l.12-.12.68-.05.07-.07-.07-.07-.52,0,.41-.42v-.07l.07,0,0,.21,0,0,.06,0,.05-.18.08,0,.35.27v0l0,0h.07l0,.09,0,.05.05,0v-.05l.22.17.06,0v-.07l-.17-.13.42,0a7.14,7.14,0,0,0,2.72.28l0-.09h0l0,.14.08.05.06-.07v-.1h0v0h.23l.07-.07-.07-.08-.27,0-.45-1.44-.21-.29v0l-.65-1-.11-.55.09-.88,0,0,0,0L154,304l-.09-.39.32-1.36h0l.44-1.11.36-.47.22-.36.55-1.26.13-.72.55-1.18.26-.33,0,0h0l.78-1.1c.05.19.07.39.11.59h0v.06h0a8.22,8.22,0,0,1,.15.84l-.13,1.54-.2.65.05.1.08,0v.2l0,0,0,0,0-.38.22-.54a.34.34,0,0,0,0,.1l-.13,1.07,0,.1H158l0,0,0,.06h0l0,.33c0,.16,0,.32-.05.48l0,.21v0c0,.45-.07.89-.15,1.33h0v0c0,.17-.1.33-.14.5l-.08,0-.48,1.49-.56,1.14,0,.13h.12l-.66,2.06,0,.05.06,0,.75-2.21h0V306a2.34,2.34,0,0,0,0,.7v.16l0,0a1.36,1.36,0,0,0,.11.28l-.27.65,0,0h0l.26-.6,0,0-.13.75,0,.05,0,0,.14-.68a.9.9,0,0,0,.22.26h-.16l0,0,0,0,.37,0v.07h.09l0,0h0l.46.24-.07.08v.09h.08l.09-.11,0,0,.75-.11,1.8.37.1-.07-.06-.1-1.68-.35,0,0,.56,0v0h.08l1.62-.1a.62.62,0,0,0,.38-.12.58.58,0,0,0,0-.14h.17l0-.06,0-.05H162a1.64,1.64,0,0,0,0-.23l0,0,0,.08.08.07.09,0h0l.53.26.18.36.08,0,0-.09,0-.05.1.1h.11l0-.1,0-.09,0-.05,0,0-.05,0,0-.11.17.05.09-.05,0-.09-.27-.08,0,0H163l-.25-.07,0,0-.55-1.06v0h0l.13-.9.28-.37v-.05h-.05l-.16.2c.06-.17.12-.34.19-.5l.21-.35,0,0,.06-.06v-.17l.24-.4,0-.07-.07,0-.15.24v-.09a6.44,6.44,0,0,0,.57-2.41,6.1,6.1,0,0,0-.17-1l0-.13,0-.07h0c-.1-.44-.17-.88-.24-1.31v-.32l-.06-.06h0a.11.11,0,0,0,0-.05s0-.09,0-.13l.14-.21v-.06l-.06,0-.06.09a5.29,5.29,0,0,1,.15-1.32l.14-.13v-.06h0l-.06.05a12.89,12.89,0,0,1,.53-1.55l0-.06-.32,1.95,0,.05,0,0,.34-2h0l0,0,.65-1,.45-.61V293h0l.74-1.12.16.47.06,0,0-.05-.17-.56.37-.57v-.05H166l-.14.21.78-1.19v-.05h0l-.92,1.33,0-.69h0v-.05h0v0c.77-1.43,1.53-2.85,2.23-4.34l2.35.86,4,1,4.08.5h2.18a36.86,36.86,0,0,0,7.5.09c1.2-.12,2.39-.3,3.58-.47,1,0,1.92,0,2.86,0l-10.74.78,0,0,0,0,11.34-.82a38.61,38.61,0,0,1,4.65.58,1.64,1.64,0,0,0,0,.23l-2.16-.3,0,0,0,0,2.16.31a6.15,6.15,0,0,1-.31,1.72,20.48,20.48,0,0,0-1.21,2.26c-.41,1.51.71,2.94,1.36,4.34,1.11,2.41.88,5.24,1.06,7.92a2.34,2.34,0,0,0,.27,1.09c.2.31,1.1.29,1.4.1,1.78.62,4.48,1.11,6.16.17a8.67,8.67,0,0,1-2.3-6.25,26.26,26.26,0,0,1,.3-3.31,3.67,3.67,0,0,0,.51.61l.16.28.12.1.08.28,0,0,0-.05,0-.15,1.06.88.2.37.52,2.05,0,0,.19.36,0,.23.11.08.11-.11v0l.38,2.88a5.65,5.65,0,0,1-.3,1,1.59,1.59,0,0,0-.2.59.67.67,0,0,0,.08.25l-.09.19,0,.09.09,0,0-.09a.67.67,0,0,0,.14.11l-.18.56.22,0,.15-.44a.33.33,0,0,0,.12.05l.13.43.28,0-.12-.11-.11-.12,0-.16.09.05-.05-.05a3,3,0,0,0,.41.09l.21.15-.28,0,.27.13v.1l1.2,0v-.11l-.09,0h-.14l0-.13h.74l.27.13.12.08,0,0,0,0h1.82l.73-.07h-1.8l0,0-.05,0-.31,0-.29-.1h0c.89,0,1.79-.07,2.68-.15l.05.28,0,0,0,0,0-.27,1.26-.13,0,.06-1.09.18,0,.07.06.06,1.17-.16.06.14h.37l-.07-.17.65-.09.09-.06,0-.1-1.57-1.52,0-.1-.05-.05h-.06L214.88,304l-.06-.18-.18-2.64,0,0,0,0-.3.69.18-2.19,0,0,0,0-.19,2.13v-.6l0,0c0-.24,0-.48,0-.72l.29-1.74h0l.91-5.31.32-.57,1.65-1.58v-.07h-.07l-1.41,1.34.07-.13v-.11h0l1.49-1.36.38-.06a16.72,16.72,0,0,0,2.17-.62l0,.05.07,0,.61-.28.59-.19.83,0h.2v0l-.32.07,0,.05,0,0,.6-.13h0l-.23.15-4.88,1.09,0,0,0,0,4.64-1,0,0v.05h0l.22-.13,1.39-.31h.47l-1.29.4,0,.05,0,0,1.55-.48,1.32,0-.11.06h-.49l0,0,0,0h.55l4.29-.06h1.18l-.76.19,0,.06.06,0,1.09-.27.3,0-.3.09,0,.06.06,0,.5-.16a8.31,8.31,0,0,0,2.78-.12h.69l0,0,0-.05h-.37l.17-.09,1.07,0-.37.07,0,.05,0,0-.18.05,0,.05.06,0,1-.29h1l.61.14.11-.08,0-.05.42,0-.63.23,0,.06.05,0,.81-.3a8.1,8.1,0,0,1,3,.7v0l.07.06.69.38.73.21.26-.39-.05-.08,0,0,.09.06.12,0,0-.13,0,0,.11-.09a35.6,35.6,0,0,0,4.2-4.73v.21l-.56.86v.06l0,0-1.54,2v.06h0l-1.53,1.37v.12H245l1.5-1.4h0l0,0,1.74-2.37,0-.05,0-.05.34-.55h0l0,0,.17-.38Zm-3.82-20H245l-.29.41a1,1,0,0,0-.22-.14Zm-1.41-.1-.11.11-.22,0,.21-.21Zm-1,0,.75-.11L243,265c-.2,0-.39,0-.59,0Zm-.12,0,0,0h-.21Zm.23-3.56-.09,0-.09,0,0,.05-.29,0ZM139,284.41l0-.1,0,.13Zm0,7.16.14-.64a.88.88,0,0,0,0,.15Zm4.76-2.45-.23-.51a1,1,0,0,0,0-.17Zm-.43.89.11,1.86-.28-1.44C143.26,290.29,143.32,290.15,143.37,290Zm-.56,1.32,0-.05,0,1Zm-.24.51v0h0Zm-.33.67c0-.1.1-.19.14-.29l-.22.8Zm-.16,1.18.46-1.68-.49,3.8v0Zm-.42,2.32,0,0v0l0-.16,0,.33-.05-.11Zm.06.28v0ZM142,293v.08h0S142,293,142,293Zm-.1.23a.69.69,0,0,0,0-.1l-.07.5Zm0,1.23,0,.69,0-.3Zm-.1.63,0,.21,0-.11Zm.07.51,0,.73-.09-1h0Zm-.13-2,0,0,0,.44,0-.29Zm-.12.31.07.47v.16l0,.23-.14-.35C141.55,294.26,141.59,294.09,141.64,293.92Zm-.15.63.13.36v0h0l0,0h0l0,.41,0,0,0,0-.11-.59A2.61,2.61,0,0,1,141.49,294.55Zm-.21,1.23v0l0-.1Zm-.35-.72v0Zm7.16-2.92-.44-1.24c.15.29.32.56.47.85Zm.87,2.77-.05-.1-.15-.34v-.08h0l-.14-.63v-.23l.33.92.12.55Zm-.26-1.48h0l0-.08,0-.14c.08.23.21.46.29.7l0,0,.06.42Zm.43,1.66,0-.11,0,.11v0Zm0,0h0Zm-.05-.59,0-.28.1.49Zm.41,1.65v.08l0,.2-.05,0Zm.09,4.38,0,.36-.16-2.3.07-1.76.11.57a11.58,11.58,0,0,1,0,1.56.35.35,0,0,1,.25.28Zm1.67,6.48-.47.51-.66.07-.14,0a1.64,1.64,0,0,0,1-.73l0,0-.17.26v0h0l.17-.26.28.13Zm.79.37-.05,0h.06Zm.08,0v0l.09,0Zm2.79-1.06.3.79-.82-1.42Zm-1.29-1.92-.07-.06.19-.62V304Zm.12-.1v0Zm.13.77,0,0,0,0Zm.05.07v0l0,0Zm-.05-1.76v-.06l.13-.45Zm.18-1.08,0-.09h0Zm1.4-2.8,0,0-.22.48-.26.47,0,.05.3-.77h.05l0,0,.27-.59Zm-.53.46-.11.22-.26.59h0l-.05,0-.78,1.67,0,1-.23.78a2.39,2.39,0,0,1-.17-.7,4.28,4.28,0,0,1,.53-1.76c.56-1.17,1.11-2.34,1.67-3.52,0-.07.08-.14.11-.21v0l0,.06Zm2.36-4.09-.39.51v-.11h-.14l-.13.15,0-.06.84-.85Zm.64,2.28,0,.11,0-.33Zm.38,9.68-.12-.06h.18Zm.16,0,0-.05.26.05Zm3.51-1.61h0l0-.2Zm.35.46-.26-.22,0,0h0l0-.34ZM164,293.88l0-.05,0,0Zm.23-.32h-.06c.12-.25.25-.48.38-.73l.44-.37Zm1.37-2-.53.78v0H165l-.27.23c.17-.34.34-.67.52-1l.26-.38,0-.05h0l.14-.25,0,0Zm5.2-4.38-2.84-1s0-.08.07-.13a85.93,85.93,0,0,0,9.79,2.31Zm8,1.34-.85-.14,1,.13Zm30,11.64,0-.06a.25.25,0,0,1,0,.07Zm.28,1.08-.1-.38.09.2v.18Zm.71,1,.08.21-.08-.18Zm.29,2.25-.23-1.79.28.74,0,.27Zm.87,3.23-.08,0h.1Zm.61.09-.3,0-.08-.07.05-.08c.14,0,.28,0,.42,0Zm6-.89.4.37-.52.09,0,0,.48-.05C217.84,307.13,217.71,307,217.6,306.89Zm-2.65-2.5.09.17,0-.12.08.07.06.25h.05l0,0-.07-.15.58.55.41.49-.22-.14-.71-.48-.06-.23h0l-.1-.2.12.4-.27-.18,0-.28,0-.06,0-.09v-.06Zm-.81-1.93h0v-.27h0l.06,0,.23-.55.06-.21,0,.13.15,2.12-.56-1.1,0,0Zm.56,1.42h0l-.07-.2Zm-.12,0V304l.08.08.1.26,0,.34-.59-.4-.06,0c0-.5,0-1,0-1.49Zm-.27-5.21,0,.05-.21,1.21c.05-.92.2-1.83.33-2.75l.35-1.52Zm.54-3.22h0v0Zm.05-1v0c0-.12.05-.24.08-.37Zm1-2.29.24-.25v-.06l.17-.21.05,0v0l.15-.17v0l.05,0h.25Zm1-.92,0,0h-.22v0c.09-.08.19-.13.28-.2l.3,0Zm5.6-1.27.18-.11.51-.05Zm7.47-.23v0l-4.1.06.15-.07,4.21-.08h.07Zm.51,0,.12,0h-.12Zm-2.18-27.95.31-.17,2.6-.37A10.62,10.62,0,0,1,228.31,261.8Zm8.25,2.1a.27.27,0,0,1-.12-.06c-.13-.11,0-.31.18-.39.37-.22.77-.38,1.16-.58l.15,0-1.36,1.07ZM241,278l0,0,0,.05S241,278.07,241,278Zm7.49,7.28c-.14-.08-.26-.18-.4-.26l.41.1Z" fill="url(#linear-gradient-8)"/><polygon points="210.45 307.68 210.63 307.72 210.34 307.58 210.45 307.68" fill="url(#linear-gradient-9)"/></g><g clip-path="url(#clip-path-5)"><path d="M173.41,240.72a82,82,0,0,0,18.82,43.74,83.28,83.28,0,0,0,10.35,10.31v-54Z" fill="url(#linear-gradient-10)"/><path d="M186.41,295.85c-1.84-.09-3.69-.15-5.53-.27a27,27,0,0,1-3.48-.39,7.55,7.55,0,0,1-4-2.06,6.71,6.71,0,0,1-2-4,.74.74,0,0,0,0-.14v-1.15a11.21,11.21,0,0,1,.25-1.18,5.59,5.59,0,0,1,4.6-4.2,4.82,4.82,0,0,1,4,1,4,4,0,0,1,.74.84,1.31,1.31,0,0,1-.87,2,1.19,1.19,0,0,1-1-.25,3.71,3.71,0,0,0-1.55-.83,2.73,2.73,0,0,0-3.05,1.58,3.24,3.24,0,0,0,.43,3.51,4.53,4.53,0,0,0,2.59,1.61,13.11,13.11,0,0,0,4,.44,1.37,1.37,0,0,0,1.22-.88,5.7,5.7,0,0,0,.42-2.2,36.77,36.77,0,0,0-1.12-10.5c-.37-1.4-.77-2.79-1.11-4.2a21,21,0,0,1-.5-6.46,15.71,15.71,0,0,1,2.25-6.94,33.9,33.9,0,0,0,2.42-5.18,9.39,9.39,0,0,1,2.8-3.88,10.88,10.88,0,0,0,1.39-1.62,15.15,15.15,0,0,1,2.14-2.31,6.15,6.15,0,0,1,.68-.45c.28-.16.47-.07.53.24s.13.86.16,1.29c0,.6,0,1.19,0,1.78a.26.26,0,0,0,0,.1l1.13-.65,1.72-1,.46-.22c.27-.11.42,0,.34.28a10.78,10.78,0,0,1-.42,1.33c-.16.43-.36.85-.55,1.28-.08.16,0,.25.1.35.31.21.61.44.91.68a3.78,3.78,0,0,1,1.56,2.93,2,2,0,0,0,.74,1.54,4.75,4.75,0,0,1,.72.7.47.47,0,0,1,.08.41,6.5,6.5,0,0,1-1.85,2.6,2.2,2.2,0,0,1-1.6.38c-.48,0-1-.16-1.42-.23a1.7,1.7,0,0,0-.55,0,1.06,1.06,0,0,0-.92,1.37c.14.6.32,1.19.47,1.79.21.79.42,1.58.6,2.38a1.92,1.92,0,0,0,.92,1.31,21.88,21.88,0,0,1,3.91,2.92,15.49,15.49,0,0,1,3.66,5.63,20.49,20.49,0,0,1,1.37,5.78,21.29,21.29,0,0,1-.35,6c-.05.26-.23.22-.37.29a.5.5,0,0,1-.16,0v.24l.44-.08c-.08.18-.1.4-.22.49s-.33,0-.5,0v.06l.47,0a2.37,2.37,0,0,0,.21.33,3.47,3.47,0,0,1,.72,3.18,3.69,3.69,0,0,1-.17.42.67.67,0,0,1-.8.48.31.31,0,0,0-.26.11c-.07.11,0,.23.25.3a5.49,5.49,0,0,1-.71.39,3,3,0,0,1-.83.2c-1.76.17-3.52.36-5.28.48s-3.22.14-4.83.22a3.88,3.88,0,0,0-.48,0h-4.48A3.88,3.88,0,0,0,186.41,295.85Zm16.84-10.72c0,.06.17.19.18.18s.4.1.4-.19c0-.07-.1-.13-.15-.2C203.48,285,203.25,284.83,203.25,285.13Zm0,1.4c0,.06.17.19.18.18s.4.1.4-.2c0-.06-.09-.13-.1-.14C203.49,286.37,203.25,286.22,203.25,286.53Zm.21.87c-.06,0-.15,0-.16.05a.59.59,0,0,0,0,.25,2.57,2.57,0,0,0,.48,0s.08-.14.06-.2-.12-.09-.18-.13l0,.05A.83.83,0,0,0,203.46,287.4Zm0,1c-.07,0-.17,0-.2.06a.24.24,0,0,0,0,.22c0,.05.14.05.21.07a.22.22,0,0,0,.14,0l.21-.15-.17-.21-.06.06Zm0-1.44c0,.06,0,.11.05.14s.13.12.2.11.13-.1.14-.15a.3.3,0,0,0-.12-.21c-.18-.11-.39,0-.45.37Zm.23,6.2c-.07-.06-.21-.14-.25-.11a1.06,1.06,0,0,0-.18.27.65.65,0,0,0,.22.11,3.19,3.19,0,0,0,.43,0A1.82,1.82,0,0,0,203.67,293.18Zm-.41-7.7.17.39.43-.28,0-.07Zm.15,4.85-.22.12h.73v-.05l-.4,0,.18-.19,0,0-.2.12-.22-.17,0,0Zm-.12,2.3h0c0,.09,0,.2.07.24a.34.34,0,0,0,.26,0,.21.21,0,0,0,.11-.19c0-.07-.1-.12-.2-.23l-.06.33,0,0Zm.07-.7c.2,0,.18.41.45.24.06,0,.06-.16.09-.24l-.06,0-.08.22c-.2,0-.18-.41-.43-.24-.07,0-.07.19-.1.3h.07Zm-.11-3.64a1.71,1.71,0,0,1,.31-.26c.18-.07.2.08.2.22h.07a1.1,1.1,0,0,0-.06-.27,2.66,2.66,0,0,0-.45.06l0-.13h0Zm.24,5.3c-.09,0-.17.13-.25.19s.13.2.21.21.18-.09.27-.14v-.09C203.64,293.7,203.56,293.59,203.49,293.59Zm0-2.16c.09,0,.16-.13.23-.2s-.14-.19-.22-.19-.18.09-.27.15v.1C203.29,291.34,203.39,291.45,203.46,291.43Zm.37.2c-.1,0-.14-.18-.28,0s-.19,0-.29,0C203.3,291.72,203.64,291.78,203.83,291.63Zm-.36-.82c-.06,0-.13-.11-.23-.19s0,.18.06.21.19.1.25.06.11-.17.17-.26h-.05C203.6,290.7,203.54,290.81,203.47,290.81Zm.32-6.06.06-.11h-.6v0Zm0,1.4.07-.12h-.61v.05Z" fill="url(#linear-gradient-11)"/></g><g clip-path="url(#clip-path-6)"><path d="M309.14,296.78A82.65,82.65,0,0,0,308.85,170V297Z" fill="url(#linear-gradient-12)"/><path d="M314,234l-.07,0,0,.08,1,.38.09.06h.05l.48.17.17.1a16,16,0,0,0,5.13,1l.5.1.08.06,0,.16h0l0,.05.09.11c0,.2.07.4.11.59l-.57-.74h-.07l0,.06.63.82h.05c.14.73.28,1.46.41,2.2l-.32-.82-.05,0,0,0,.47,1.21.14.73.3-.15,0,1,.05,0,0,0,0-1.09.25-.12c0,.09,0,.18,0,.28h0l0,.07.25,1.69a.13.13,0,0,0,0,.17l.14.95.06,0,0,0,0-1.23s0,0,0,0c.19.1.21.36.21.57a15.89,15.89,0,0,0,.48,3.56c0,.21.06.43.08.64a6.9,6.9,0,0,0,.3,1.76,5.07,5.07,0,0,0,.94,1.49l0,.13,1.06,1.51h.08v0c.24.33.48.65.73.95l.05.11a6.28,6.28,0,0,1,.24.69v.35l-.08.55,0,.07.08,0,.13-.43c.08.27.18.52.28.78l-.14.6,0,.08.09,0,.09-.48a2,2,0,0,0,.08.22,7.42,7.42,0,0,0,.44.7l-.2,1.78.05.07.07,0,.38-1.36,0,0v.05l.24,2.23.09.09.08-.09,0-.58c.07.35.16.7.23,1l0,.83.05.1.1,0,.36-.93,0-.3v0c.31.39.57,1.15.87,1.54a.16.16,0,0,1,0,.07l-.22-.25h-.16l0,.15h0l.07.2-.05,0,0,.1.14.26h-.08l-.05.13,1.2,3.19.37,1.64.43,3.26,0,.13h0l0,.07,0,0-.23,1.32,0,.07.05,0,.2,2.23-.29,6.08h0c0,.22,0,.45,0,.67l-.09-.23-.06,0,0,.05.17.42-.09,1.68v.06l-.15-.31H332l0,.06.2.44,0,.28h0l-.44,1.87-.49.31-.58.1-.18.07-.07,0h0a1.33,1.33,0,0,0-.38.18l-.44.18v.64l0-.08-.06,0,0,.05.14.35v.25l.1,0,.06.17.11,0,0-.11-.17-.36v-.1a1.3,1.3,0,0,0,.43.58,3.14,3.14,0,0,0,1.61.38l.05.2.07,0,0-.08,0-.16a9.24,9.24,0,0,0,1.58-.05l0,.05.07,0,0-.07v0a3.22,3.22,0,0,0,.69-.2l0,.08.09,0,0-.1,0-.06.29-.13c.07-.05.12-.13.18-.18l.07.1.13.09-.22.33,0,.11H335l.26-.39.28-.06.24-.17,0-.18,0,0,.09,0,0-.09-.09-.18,0-.17.15.29.08,0,0-.08-.27-.56-.13-.54,0-.4.08-.53.21-.14.19-.17.25-.86-.17-.41.1-.82,0,.14,0,0,0,0,.08-1.55.1.16.13.05.06-.13-.06-.2h.1l0-.09-.26-.71v-.06h0l.07,0,0-.07-.05-.14.57-1.81-.07.27,0,.07.07,0,.59-2.29.15-.5h0l0-.05.63-1.61v-.08l.11.25.06,0,0-.05L339,271.4l.13.26,0,.16.05.08.08,0v-.05h0l0-.08-.05-.1.19-.9v0l.14,0,.06-.12-.13-.39.09-.44,0,0,0,0-.06.28-.06-.18c.05-.21.09-.43.14-.64l.25.58.08,0,0-.08-.14-.32,0,0,.07-.07,0-.29.15.68.06,0,0-.06-.29-1.32-.09-1.2.29.33h.12l.05-.11-.1-.56a8.88,8.88,0,0,1,.71.79l.6,1.27.77,1.88.06,0,0,0,.1.21.05.05.07,0,.3.74.06,0,0-.05-1.36-3c.2.31.41.62.58.95l.44.93h0c0,.09.09.18.13.27l.68,1.8-.2-.23h0l-.82-1.3-.08,0,0,.08,1.52,2.35-.07,0v.07l.81,1.8c.07.22.15.44.23.66l1.22,4.5.05,0,0,0-.31-1.16c.12.28.22.56.32.85l.15,2.06a2,2,0,0,1-.34.77,5.76,5.76,0,0,1-.86.85h0v0h0v0h0l-.62.38-.2.71.32.67h.11v0a.58.58,0,0,0,.27.24l.14,0,.2.33.09,0,0-.08L345,286a5.89,5.89,0,0,1,1.45-.19l.08.1.1-.06,0-.05c.38,0,.77,0,1.15-.06a3.62,3.62,0,0,0,1.47-.5l0,.08-.47.27-.06.08.08.07.57-.32.08-.34.12-.11-.14.39,0,.13.13,0,.39-1v-.15a1,1,0,0,0,.1-.24,2.22,2.22,0,0,0,0-.63h0l0-.08-.11-.57a1.55,1.55,0,0,1,.08-.64,4.37,4.37,0,0,1,.23-.49l.26-.42-.19-.19a2.87,2.87,0,0,0-.22-.62,13.23,13.23,0,0,1-.71-1.88l-.25-1.5,0,0,.05-.06-.38-2.94c0-.32.05-.64.09-1v0h0c0-.12,0-.24,0-.36l.28-.52.05,0,.1-.16,0-.1.29-.52L349.4,270h0c.12-.32.25-.63.38-.94l-.13,1.26,0,.05,0-.05.17-1.53.25-.29,0-.09.22,1.18.05,0,.05-.05,0-.9h0l0,0,.25-1.65h0c.12-.22.23-.45.36-.67l.07.77h0l0,.47.06.05,0-.05v-.32l.14-.07.11-.33h0l0,0-.07.44.09.18.17-.06.48-.9h0l0,.14.06.15h.15l0,0,.13.05.11-.08.33-.77.16,0,.15,0,0,.13.17.09.1-.16,0-.05.27,0,.65,1.14.14,0,.07-.14-.33-.79.9,1.26.19.06.09-.18-.35-.85-.31-.27c-.1-.24-.2-.49-.29-.73l1.17.48h.1l.06-.06.15.09.19,0v-.19l-.29-.31a15.63,15.63,0,0,1,2.7.57s0,0,0-.06l.1,0v-.16l-.48-.39h0l0-.07.67.19.08,0,0-.08-.88-.51a11.89,11.89,0,0,0,2.86,0l.77.18.11,0,0,0,.53.2,0,0a0,0,0,0,0,0,0h.06l.74.28.16-.07,0-.18-.51-.33.08-.1,0-.14-.14-.15c.34.07.68.16,1,.26l.53.24.07,0,0-.07-.17-.07h.07l0-.06h0v-.06h0v-.05l.27.16.11,0v-.11l-.43-.37,0-.22,1.56.79.18,0v-.18l-.66-.74-.05-.11,2.25,1.29.15,0a5.74,5.74,0,0,1,1,1.06c.31.45.66,1,1.2,1a8.56,8.56,0,0,1,.08-1.52l.1.07.56.54c.3.34.61.67.91,1,0-.1,0-.2-.05-.3h0v-.15l-.05-.06v0h0a2.93,2.93,0,0,1-.05-.29l0,0h.11l0-.11-.2-.4a3.51,3.51,0,0,1,0-.56l.06.09.12,0v0a17.73,17.73,0,0,0,2,3.22l.16.29h.07c.33.43.68.85,1,1.27l-.72-.66H374v.06l1.4,1.36.45.72.08,0,0-.08,0,0c.38.47.75.94,1.11,1.43l.19.41.06,0,0-.05c.28.4.55.81.8,1.23l.55,1c.2.42.4.84.56,1.27l-.41-.41h-.09v.09l.6.61a13.6,13.6,0,0,1,.68,3.46l.05.66a13.5,13.5,0,0,1-.07,1.91,2,2,0,0,1-.28.77h-.09l-.3.11-.07,0-.07,0v.07l-.12.15s-.07,0-.11,0v.13l-.18.23,0,.63,0,0,0,0,.17.9h0v.1l3.47-.12c.19,0,.39,0,.59,0l0,0,.07-.06a1.37,1.37,0,0,0,1.11-.69,2,2,0,0,0,.13-.66l0,0h.09v-.11l-.12-.14a1.75,1.75,0,0,1,.08-.41l.18.2h.1v-.12l-.22-.24h0l.74-.12.08-.05,0-.08-.08-.42a.86.86,0,0,0-.05-.27.06.06,0,0,0,0,0l-.07-.4-.05-.05a42,42,0,0,1-1.77-9.28l.08.08.26,1.41.06,0,0-.06-.25-1.32h.07v-.09l-.1-.1-.2-1.08v-.09l.17.21.28,2.18.08,0,.05-.08-.25-1.94,0,0h.09v-.1l-.16-.19-.1-.83h0v-.08l0-.05-.07-.54.1-1-.23-1.25,0,.05h.07v0l0,.1.07,0,0-.06,0-.83-.05-.05v0l-.18-.15c0-.14,0-.28,0-.42l.46.37.19.15.69.54,0,0h0l.87.67.1,0,.07-.05.9.58.15,0,0-.16-.32-.22.68.32.05,0h0l.06.06h.07l.4.37,2.22,2.67,0,0h0l.82,1.11-.87-1h-.1l0,.11,2.36,3.72,1.84,3.85.18.4a7.34,7.34,0,0,1,.32.82l.12.57a1.91,1.91,0,0,1,0,.63,3.3,3.3,0,0,1-.65,1.13l-.08.06h0l0,0,0,0-.12-.24h-.06l0,.06.13.3-.54.4.33,1.9h.15v-.16l0-.22c.05,0,.07.1.14.14h0v0l0,.06.05,0h.07l.13.1.08,0v-.09h0l.07.07h.07v-.06h0l.83-.06.09.06.11.06.08,0,0-.08,0,0h.11l-.05.05.05.06h1.64v.06l.06,0h1.45l0-.05,0,0-1.25,0v0h.39a2.28,2.28,0,0,0,1.13-.17,1.49,1.49,0,0,0,.7-1.15l0,0v-.05a4.89,4.89,0,0,0,0-1.08,4.37,4.37,0,0,0-.15-.95v0l-.05-.46-.13-.12V282l-.19-.13,0,0h0l-.11-.08-.3-.35a5.64,5.64,0,0,1-.76-1.88l-.18-.68a7.51,7.51,0,0,0-.21-.78c-.08-.29-.15-.58-.23-.87l.09-.16-.5-1.39c-.41-1.51-.81-3-1.21-4.53l-.34-1.75-.05,0,0,.05.07.39c0-.21-.11-.41-.16-.61l.05-.29-.22-1.84-.11-.11v-.12l-.61-.72-.06,0v.06l.48.59-.46-.44h0l-.27-.23h0l0,0-.57-.49-.47-.14-.77-.46H392l0,0-.8-.54a.31.31,0,0,1,.42-.18v0l.06,0,.16,0,0-.16-.69-.9a11,11,0,0,1-.46-1.06l0-.09-.16-.36a12.63,12.63,0,0,1-.37-1.81l.89,1.07h.17l0-.18-.1-.25c.1.11.21.21.32.31a17.86,17.86,0,0,1-.52-2.6l0,.09.17.09.09-.16,0-.22.33.23.06-.84.12-.12v-.05a.23.23,0,0,0,.19.06.23.23,0,0,0,.12-.12l.05.74.05.05.05-.05,0-.3,0,.15.17.11.13-.15-.08-.72c0-.05,0-.09,0-.14l.2.1.12.35.18.09.1-.17,0-.07.19.1-.15,1.37,0,.06.07-.06.15-1.3h0l1.18,2.15,0,.24.07.07.05,0,.25.47.17.05.08-.16-.07-.3s0,0,0,0,0-.05,0-.08l-.06-.26s0-.11.07-.14.09,0,.13,0l.35.62.06,0,0,0,.14.08.07-.13-.45-1.31,0-.3c.56.59,1.18,1.12,1.8,1.66l.17.3.08,0v0l.48.69.17,0,.07-.15,0,0c.45.34.92.64,1.38,1l1.49,1.41h.17l0-.16h.16l0-.17-.24-.44h0l.14.13,1,1h.19l0-.18-.36-.57-.21-.64,1.95,1.57h.18l0-.17-.3-.41.26.3h.16l0-.15-.12-.17.16.08a7,7,0,0,0-1.54-2.43l.66.7h.07l.17.18-.18-.59.8.72.08,0,0-.08-.34-.31.5.35v0l.05,0h0l.22.16.18,0,0-.17-.59-.95c0-.16-.07-.32-.1-.48l1.52.73.17.17h.06v-.05l1.28.61.19,0,0-.18-1.1-.92a6.13,6.13,0,0,0,.61.18l-.44-.31.4.13.08,0,0-.06h0l.85.62.08,0v-.08l-.41-.38,1.32.36.16-.07,0-.17-1-.87.15,0a9.44,9.44,0,0,1,1,.45l0,.08.07,0,.05,0,0,0,.05.05h0a8.57,8.57,0,0,1,.77.45l-.08-.1.76.55h.19v-.2l-1.59-1.74.18,0,.06,0,0-.06-.33-.07-.28-.3h0l2.33-.37.1-.14-.1-.13-.49-.08.42-.15,0-.06,0,0-.58.21-.31-.05.28-.12.65-.06,0-.06-.06,0-.4.05,1.07-.46,1.43-.44.09-.15-.05,0,.07,0-.07,0-.08-.07-1.94.24.75-.47c-.05,0-.12,0-.18,0l.49-.26h0l.18-.1,0-.05-.05,0,.67-.73,1.41-.75.05-.15-.15-.08-.46.08c.13-.13.29-.23.42-.36a5,5,0,0,1-1.9.45l1.88-1.91.73-.59h-.15l.39-.4,0-.17-.16-.07-1.28.39-.36,0-.11-.72.14-.6,0-.15h-.16l-.79.6.25-1.64,0-.18a6.4,6.4,0,0,0,.08-.87l-.24-.14-.07-.46-.16-.09-.07.12.28-.68,0-.05-.06,0-.62.81v-.36l-.07-.09-.11,0-.41.55a2.25,2.25,0,0,0-.4.52l-.14.18-.37-2.48-.13-.08-.1.15.09.55c0,.17-.05.34-.07.51a5.53,5.53,0,0,0-.34-.79l-.35-1.19-.11-.07-.09.1-.1,1.05-.32-.59-.46-.49h-.16v.15l0,0v.07l-.21.44s-.09-.07-.13-.11v0l-.05-.05h0l-.56-.77-.11,0-.07.09-.14,1.19-.28-.27h-.15v.15l.21.19a1.49,1.49,0,0,0-.83.18v-.06l-.08-.08-.05,0,0,0,0,.06,0,0,.08.08h0a7.47,7.47,0,0,1,.24.93l-.09-.05-.33-.43-.06-.15-.08,0,0,.07v0h0l.76,1.67a6.65,6.65,0,0,1,.06.89l-.26-.19-.24-.4h-.06l0,.06.13.21-.06,0h0l-.19-.2h-.12l-.07.12-.09,1.48-.15-.64-.13-.07-.08.13.13,1.19-.17,1c-.05-.21-.1-.42-.16-.63a1.13,1.13,0,0,1-.06.32l-.31-.88-.13-.07-.07.12.14.91-.18.79,0,0,0-.08-.12,0-1.39.52h-1.37l-1.67-.35-.05,0,0,.05,1.24.27h-.39v0l-1.05-.28h-.05l-.88-.45-.09-.12,0,0h.06l0-.06-1.87-2.28c-.27-.42-.52-.85-.78-1.27l.09-.08-.06-.32-1.21-1.52c-.11-.17-.21-.34-.31-.51l.17.12h.06v-.07l-.34-.24c-.62-1-1.25-2-1.85-3l-.08-.33-.2-.12-.06-.11.35.1h.09l.05-.06.47.05.11-.08-.05-.13-1-.58,0-.1,0-.09-4-2.07,1.8.22.14-.09-.08-.13-1.25-.34c.08,0,.17-.07.25-.12-.34-.06-.67-.14-1-.22l-3.47-1.53v-.09l-.07-.06-.3-.12.52.06h.06l0,0,.8,0,.11-.1-.08-.13-2.38-.54-.38-.16,0,0-.05,0-.31-.11h0a2.74,2.74,0,0,0-.46-.15c-.33-.08-.67-.1-1-.16l-.71-.33-.14.05,0,.13.05,0-.25,0c-.19-.06-.38-.14-.59-.19a8,8,0,0,0-1.77-.14l-.87-.14-.15.1.06.1h-.13c-1.84,0-3.68.06-5.53.19l-1.14-.17,1.79-.32,0-.06-.05,0-4.76.85c-.87,0-1.75.08-2.63.09l1-.11,0-.05,0,0-1.79.19a28.06,28.06,0,0,1-5.34-.47h0l-2.17-.4c-.65-.19-1.29-.36-1.95-.56s-1.16-.47-1.74-.72l0,0h0a34.44,34.44,0,0,0-3.24-1.28l-.14-.06h0a8.69,8.69,0,0,0-1.39-.33c-1.12-.16-2.26-.07-3.38-.23a4,4,0,0,1-2.88-1.58h0l.35.32h.06v-.05l-.32-.31.07,0,1.2.48.08,0,0-.1-1.35-.91a40.76,40.76,0,0,0-3.9-3l-.48-.75-.07,0,0,.08.34.52c-.34-.24-.68-.48-1-.74l-.48-.69-.07,0v.07l.3.42c-.18-.14-.35-.31-.53-.46h0l-.77-.87h-.06v.06l.4.44a12.2,12.2,0,0,1-1.62-1.83h0l.06,0,0-.06-.12,0a7.43,7.43,0,0,1-1.17-2.69l-.2-1-.34-.31.07.12a.46.46,0,0,0-.33-.15l-.1-.2h0l.3.2-.43-.38-.09-.18-.06,0,0,.06.08.17-.11,0v0h-.05l0,.06h0l-.19.06,0,0-.05,0,0,.06v0l-.13,0,0,.34h0l-.06,0,0,.06,0,.11,0,.19.1,0v0l.06.12-.15.17-.28-.52H330l0,.05.29.54-.16.17h0l0,.05h0l-1.12,1.2h0v0c-.11.13-.23.25-.34.37l0-.06,1.47-1.91v-.05H330l-1.58,1.86-.17.43c-.37-.65-1.36-.5-2.1-.7,0,0-.05,0-.08,0l-.06-.25-.05,0,0,.05.05.18a4.22,4.22,0,0,1-.8-.39l-.54-.37-.07-.07h0c-.3-.19-.59-.4-.88-.6l0-.05-.16-.08a38.64,38.64,0,0,1-3.12-2.41h0l-.07,0v.06h0l-.05,0-.13-.15H320l0,.12v0l-.37.13-.24.49.06.06.06-.06.21-.41.11-.05v0l0,.12-.06.05,0,0-.06,0-.09,0v.1l0,0a1.63,1.63,0,0,0-.19.34l-.1-.15h-.05l0,.05.14.23a0,0,0,0,0,0,0h0l0,0,0,0v0a1.71,1.71,0,0,0,.24.88c.17.36.33.72.5,1.07l-.06,0v.12l.09.08h-.07l0,.06.06,0,.14,0h0l.06.08,0,.09h-.06l0,0-.07.05v0l0,0,0,.05h0v0l.3.19.05.09-.08,0h0l-.15,0-.11.06,0,.11.5.22.2.4c0,.08,0,.17.07.25h0l0,0,0,.05.06,0h0v.07l.06,0-1.2-.26-.06,0,0,.06,1.06.45.07,0,0-.06-.49-.21.67.15c0,.05,0,.09-.05.14l-.26.55-.14.09-.81.85v.06h.07l.79-.83h0l0,0,0,0-.72,1.43-.71.86v.06h.07l.45-.55-.51,1,0-.21,0,0,0,0h0l0,0,0,0-.06.08,0,0v0l-.1.48-.09.18a2.53,2.53,0,0,1-.18.27l-.55.29-.06.06.06,0,.44-.22s0,.06,0,.08a2,2,0,0,1-1.05.37c-.27,0-.53.11-.8.16l.75-.19,0-.05-.05,0-3.62.92,0,.06.06,0,.32-.08c-.21.07-.43.12-.65.2a5.89,5.89,0,0,0-.63.29l-.13,0-.05,0-.17.05-.07,0-.13,0h0l-.29.25h-.09l0,.09-.27.24h0l0,0h0l.08.61h0l0,0,.05.12,0,.26.49.94,0,.54.1.52.09.06.08-.07.43.51h.08v-.09l0,0,.05,0h0l0,0,0,0v0a5.76,5.76,0,0,0,.62.59l0,0h0l-.43-.26h-.06l0,.07,1.23.81Zm21.45,50.91Zm0-.19a1.34,1.34,0,0,0,0-.2l0,.07,0,.14Zm0-1.44h-.18l-.06-.15h.18Zm.33-.75-.22-.51.21-.67h0l.15.22Zm55.89-7.26.15.32-.23-.48Zm2.95-16.07-.09-.52v0l.13.56v0Zm12,1.07-.29-.21.24.05.23.21Zm1.06.29-.13-.12c.22.09.44.16.64.26Zm-1.62-.56.26.19-.72-.19-.17-.13C405.75,259.92,406,260,406.17,260Zm-23,10.24v.07h0Zm-70.9-39.32v.18l-.27-.64Zm-.35-1.16v.11l0,.5-.13-.67.18-.15,0,0v.09h0Zm93.33,30.61.47.42-.29-.14-.39-.38Zm-22,8.72,0,.28,0,0Zm.07.92-.07,0,0,0c0-.16,0-.32,0-.48l.05.05Zm-33-2.17v.22l0-.14,0-.07Zm-14,12V280h0l0,0-.22,1.32h0l-.1-.25c0-.09.05-.17.08-.25h0l.07-.12,0-.1Zm-.19,2.36-.15.4,0,0,.13-.85Zm-.77.67,0,.08h-.07Zm-2.61-14.29.05-.29.11.49c0,.23,0,.46,0,.69Zm.13-.75,0-.21V268Zm-20.31-36h0a4,4,0,0,0,.29.47h0l0,0,0,0v.06l.06.08,0,0v0l.06.1H313l0,0h-.06l-.21-.23Zm7.48-14.68s0,0,0,0l-.07-.07h0l.09,0Zm10.55,1.53.18.41-.23.24-.1-.2,0-.36Zm.24-.16.16.36-.12.1,0,0-.18-.38Zm.33.24h0l-.06,0-.13-.3.13,0Zm10.88,11.63-.48-.19a.47.47,0,0,1,.26.05Zm15.31,5.12h-.15l-.17-.05Zm12.47.06,0,.07.67.09-2.74.18,2.09-.38Zm13.56,1.26-.06,0,0,.05-.23-.08a.14.14,0,0,0,0-.07Zm2.95,1.73c-.35-.13-.7-.27-1-.42l-.47-.22.53.24h.09Zm2.28,1-.15,0h0Zm9.66,12.52,0,0v0l0,0,0,.05.1.12a4.32,4.32,0,0,1-.45-.51v-.09l-.05-.13-.05-.06Zm.72.81.24.12L399,253Zm5.07.23c-.09,0-.17.1-.25.13s-.15,0-.22.05l.47-.18Zm.87-.89a2.5,2.5,0,0,1-.21.35l.13-.55Zm.62-.82,0,.1c-.08.37-.17.75-.25,1.12a.5.5,0,0,1,0-.13l.06,0,.13-.53Zm.48-1.89-.12.53,0-.64Zm.41-1.7c0,.19.07.39.09.58l-.34-.76Zm1.3-2.15a1,1,0,0,0-.22.23l.05-.45Zm2,.27h0a.78.78,0,0,0,0,.14Zm2.9,1.57-.2.46h0a.83.83,0,0,0-.24.39v-.29Zm0,.56-.1,0,.07-.17Zm1.35,4-.14.05s0,0,0-.06Zm.81.22-.64,0,.86-.26Zm-2.45,2.5h0l.08-.07Zm1.61.21-.25.14h0l.14-.12Zm-2,1.69a1.43,1.43,0,0,0-.45-.12l1.65-.87-.64.7h0Zm-.81.79h.14l-.23.07Zm.46.1c-.18,0-.35.05-.53.06l.73-.21.4,0Zm-1.33,1.05-.35.12-.13-.07.23-.09Zm.31.05-.32.05.2-.07Zm-1,1.58a3.84,3.84,0,0,1-.18-.35l.45.49Zm-2.43.09-.25-.24c.17.05.32.12.49.18l.18.17Zm-1.37.18.67.56-.27-.13-.51-.46Zm-1.49-.49,0-.18c.18.1.37.17.56.26l.38.36Zm-.94,2.94-.43-.35.27.13Zm-8.88-4.25-.39-.71V258a3.19,3.19,0,0,1,.33.4Zm-1.1,25.69.22-.2v0a1.36,1.36,0,0,0-.17.41Zm-2-10,.19.38-.06,0,0,.07.1.21-1-1.56ZM389,271l-.08-.1a.39.39,0,0,1,.08.1Zm-3.76-2.83h0l0,0a2.29,2.29,0,0,1,.28.09l0,.08.19.12Zm-1.82,0-.09-.24.09,0v.22Zm-.16.08a.38.38,0,0,1,0-.1l.08.2Zm.06,3.59v-.45h0v-.08l.09.71Zm0,1.23a1.94,1.94,0,0,1,0-.24h0l.06.29Zm1.76,10.54h0Zm-6.15,1.08v.92l-.08-.36h0Zm.37-.5h.11a.48.48,0,0,1-.18.08Zm.29-.14s0,0,0,0h-.06ZM371.31,265h0l0,0Zm-12.67.33-.32-.09-.17-.17Zm-8,2,0,0c0-.07.05-.13.07-.19l0,.13Zm-.22.49c.08-.14.11-.3.18-.44l-.17,1.08Zm-.07,1.16-.1-.56.05,0,0-.07Zm-1,1.15,0,.32,0-.07,0-.23Zm0,1.7-.06-.36h.15l.06-.14-.07-.53h0l.1.7Zm-.34.61s0,0,0,0,.05-.29.08-.43l.05.22Zm0,4.07-.16-1c0-.22,0-.43,0-.65Zm-.07.18c0-.07,0-.14,0-.21Zm-4.61,7.94.4-.23a2.39,2.39,0,0,0-.22.23,1.16,1.16,0,0,0-.21.48h-.06v.07l.05.09a2,2,0,0,0,0,.24l-.11-.27Zm1.79-3.47a3.43,3.43,0,0,1,.06.95Zm-2.37-7.25h0l.12.3Zm-.3-.64.16.19a.88.88,0,0,1,.05.15ZM339.7,267l-.1,0h0s0-.05,0-.08.1-.24.14-.36l.15.17.09.55Zm-.1,2.06.06-.34,0,0,.06.71Zm-.42,2.36-.11-.28.06-.2c0-.12.08-.26.12-.39h0l0-.07v-.05l.09.17Zm-.3.73,0-.32v.47Zm-2.64,9.5-.09-.21.17-1.16.05.34Zm0,1.11,0-.22v0l.06-.23-.05.37Zm-.33.41,0-.22.12-.1.07-.08v.07l0,.05-.05.1-.1.1Zm-.08-.36-.09.07-.1.05,0-.07,0,0,0,.05,0,.09h0l-.09-.25.15-.48.23.56Zm-.07.44,0,0,0-.17.11-.05Zm-.19.77v.22l0,0a1.17,1.17,0,0,0-.28-.69h.05l.06.15.08,0,0-.07,0-.1h.16v.23Zm.18,1.13-.09-.17,0-.14h0l0,.21Zm-.07.41,0,.05-.06-.29,0-.15.11.22Zm-.3.23.11-.26,0,.12,0,0-.1.09Zm-.38-.15a1.74,1.74,0,0,0,.39-.58l0,.14-.26.59-.08-.05-.08-.09Zm-3.15-2.14.16-.69.07.18A1.57,1.57,0,0,1,331.82,283.5Zm-2.2,1.26.05,0s0,.07,0,.11Zm2.51-2.43h0v0c0,.15-.05.29-.07.44v0l-.06,0v0l.09-.43Zm.51-13.05h0l.12.75-.08,1.73-.14-1.48-.06-.05Zm-.05-1.9.16.71,0,.2Zm-.29-2.14.14.37.06,0,.07.19.08,0,0-.07-.06-.18,0-.07-.66-1.81.08-.06v0l.78,1.91c0,.13,0,.26,0,.39v1.23h0l-.08.47Zm-3.49-9.34.12.18-.13.44Zm-1-2.17h0v0Zm-4.44-11.36-.05-.36,0,0Z" fill="url(#linear-gradient-13)"/><polygon points="314.65 263.28 314.66 263.29 314.62 263.35 314.61 263.35 314.61 263.34 314.65 263.28 314.65 263.28" fill="url(#linear-gradient-14)"/><polygon points="314.57 263.61 314.51 263.37 314.51 263.36 314.52 263.37 314.59 263.61 314.58 263.62 314.57 263.61" fill="url(#linear-gradient-15)"/><polygon points="313.69 265.83 313.7 265.83 313.69 265.84 313.68 265.83 313.69 265.83" fill="url(#linear-gradient-16)"/><polygon points="315.17 265.89 315.23 266.17 315.23 266.18 315.22 266.17 315.15 265.9 315.16 265.89 315.17 265.89" fill="url(#linear-gradient-17)"/><polygon points="316.22 269.21 316.21 269.19 316.24 269.23 316.22 269.21" fill="url(#linear-gradient-18)"/><path d="M314,265.31l-.33.45h0v.1l.05.1h0l0,0h0c0-.06.12-.06.19-.08h.3l.15,0H315l.08.05h0v0l-.06,0h.05v0h0l.13-.06,0,0h0l.08.1a.44.44,0,0,0,0,.1l-.07-.09v-.05h0v0l0,0h0l0,0v.1h0l.09.87.47.88h0l0,.51.13.49.16.27h0v0l.06.05h0l0,0,.05.08-.05,0,.07.12.06,0,.1.08c.08.22.14.45.2.68l0,.33h0l0,.19h0l.1.72v.21l-.12.24.07-.23h0l-.11.36v0h0l-.05.15-.24.53h0l.19-.41-.22.64.06-.24h0l-.13.49h0l-.12.47h0l.09-.1-.12.49v0h0l-.1.28.15-.72h0l-.18.82-.13.38v0h0l.14-.14-.06.29,0,0h0l0-.08,0,.39h0l0,.16h0l0-.11v.08h0v.1h0v.14h0v-.06l0,.22,0,1.26h0l0-1.15.06.56v0h0l.1.92,0,.25h0v.09l0,.6h0l0-.4,0,.66h0l0-.22h0l0,.54h0l0,.07.06,1.19h0l.1-.43h0v0h0l.08.32h0v0l.6,1.48.07.29,0,0h0v0l.06.11,0,.08h0v0l0,0,.05.27h0l0-.17v0l0,.29h0l0-.23.06.11v.11h0v-.08l.33.63h0v0l-.26-.52.41.51.27.41h0l-.12-.19.2.25h0l.1.13,0,0h0l.48.61.09.23v0h0v0l0,0h0l-.07-.21v0l.15.33h0v0l0,0,0,0v0l.25.25h0V285l.19.16h0v0l.41.31h0v0h0l.1.07h0l.08.06h0l.09.05v0l.09.06,0,0,.43.27h0l.25.14h0l0,0v0l0,0v0l0,0,0,0,.17.09h.05l.08.14.05,0-.09-.17.26.09.16.23h0v0l-.11-.18h0v0l.17.05H322l.48.44h0l-.44-.4h0l.07,0,.44.4h0l-.12-.2h0l.53.49h0v0l.33.38h0l.28.54h0l-.25-.52.14.2h0l.05.1,0,.13.18,1h0l-.18-1v0h0v0h0l.11.28,0,.17.09,1-.05-.18h0v0l.09.43h0l0,.13a2.58,2.58,0,0,0,0,.48,1,1,0,0,0,0,.16v.2l-.08.7v.08l-.42.7,0-.17h0v.19l-.08.14-.07,0a1.43,1.43,0,0,1-.3.16h0l.37-.3h0l-.38.31-.16,0h0l.06,0h-.17l-.14,0h0v0l.1,0h-.33v0l.12,0-.07,0h-.12l-.18,0h0l.05,0h0l-.11,0,.35-.13v0h0l-.38.14h0l-.22.08h0l0,0h0a4,4,0,0,0-1.64.38l-.1,0h0l-.09.05-.21,0h0l.2,0H319v0h1.28l-.23.06v0h.73c.43.07.87.15,1.3.2a2.53,2.53,0,0,0,.55,0,4.67,4.67,0,0,0,.5-.14,3.56,3.56,0,0,1,.47-.05h.19l.13,0h.1l-.39.07h0l.46-.08,1.06.09h0l-1-.08.28-.05a2.2,2.2,0,0,1,.5,0H325a3.86,3.86,0,0,1,.56.13,3.79,3.79,0,0,0,1.57.15s.08,0,.08-.06a.57.57,0,0,0-.3-.14l0,0h-.1l.73.06h0l-.71-.05.61,0h0l-.68,0,0,0a1.14,1.14,0,0,1-.16-.15h0c-.12-.12-.25-.23-.36-.35a.43.43,0,0,1,0-.07l.33.17h0l-.36-.17h0l-.08-.12a5.76,5.76,0,0,1-.63-1.93h0a.8.8,0,0,1,0-.15v-.15h0v-.13h0l0,.13h0v0h0v-.14h0l.07-.16v.15h0v-.58h0l0-.06v0h0l0-.43s0-.05,0-.07a1,1,0,0,0,0-.27l0-.08h0l0-.27,0-.16,0,.06h0l.15-.41.09.09h0v0l-.09-.12.16-.41.05-.07-.06.45h0l0-.3h0l.09-.18.07.09-.12.35v0h0l.11-.34h0v0l0-.07,0,.16h0l.1-.4,0,0,0,.23v0h0l.05-.23.18.15v0h0l0,0h0l0,0,.11-.32,0,0v.11h0v-.1h0v0h0v0h0l.13.09.39.45.12.17-.1-.05h0l.13.06.29.38-.06,0h0l.09,0a.86.86,0,0,0,.1.16l-.18-.08h0l0,0-.25-.34h0l.22.3h0v0l.16.18.91,1.23h0l-.77-1.05.44.52.14.22a4,4,0,0,0,.63.8l.13.13.28.39.17.3c.07.12.12.25.18.37s0,.1,0,.15l-.07,0h0l.08,0c0,.13,0,.27,0,.4a.75.75,0,0,1,0,.15l0,0h0l.05,0a.8.8,0,0,1-.05.26l-.16-.06h0l.15.05s0,0,0,0l-.06.06-.2-.08h0l.18.07a.42.42,0,0,1-.14.09l-.07,0-.28-.1h0l.26.09-.12.05-.49.14h0l-.12,0a2.07,2.07,0,0,0-.42.14l-.22-.08h0l.2.07,0,0-.18-.07h0l.17.08a.5.5,0,0,0-.12.08l-.14,0,0,0v0l.06,0-.35,0,0,0,0,0,.34,0s-.09.05-.12.09c.14,0,.29,0,.43,0l-.22.09-.12,0h0l-.25.05h0l.23,0h0l.06,0h0l.16-.07.31-.06h0l-.26,0,.15-.07h.63l.08,0h-.35l.39,0,.1,0h0v0h0l.26,0,.09,0h0l0,0,.77,0h0l-.81,0-.09,0c.18,0,.36,0,.53,0a.45.45,0,0,0,.11,0h0l.05,0h0a.66.66,0,0,0,.15-.05h0v0h0l.08-.06.1,0,0,0-.11,0v0h0l0,0v0h0l.13,0,0,.07-.11.1v0h0l0,0,0,0v0h0l0-.06,0,0v0h0l0-.07,0-.05.13-.05v0h0L331,293l.18-.22,0,.09h0l-.06.1-.25.26h0l.22-.22-.13.19h0l.12-.19v.13h0v-.14h0l0-.07.05-.06h0l0,0,.15-.3.05-.14h0v0h0v0h0v-.07l0-.12,0,.44h0l0-.5,0-.19,0,.1,0,0v0l0-.15,0-.06h0v-.05l0-.08,0-.25h0v-.11a.43.43,0,0,1,.12-.17h.35l.05,0h.14l.14,0h0l.93-.07.08,0-.06,0h.12l.06.05,0,0-.14-.06.15.08h0l0-.05,0,0h0l-.05-.08h0s0,0,0,0h0l.18,0c-.08-.05-.18-.08-.27-.13l0,0,0-.06h0l0,0-.19-.06h0l.12,0h0l-.14,0a1.73,1.73,0,0,0-.31-.14h.14l-.2,0h0a6.87,6.87,0,0,0-1.76-.53l-.07,0-.28-.05h-.05l-.11-.11-.18-.3,0,0h0l-.14-.14h0v0h-.05a10.72,10.72,0,0,1-.77-1.13h0l0-.06c-.15-.29-.24-.82-.39-1.2a2.66,2.66,0,0,1,0-.69l0,0h0l.18.33h0v0l-.16-.48h0l.18.29h0v0l0-.05h0l0,0,0,0h0v0l0-.12.05,0s0,0,0-.06h0l0,.07h0v0l-.05-.15v-.05s0,0,0-.07l.07.15h0v-.06l0,0v0h0l.1.19h0l-.15.4h0l.15-.41h0l.19-.51.08.24,0,.06-.54.89h0l.5-.81,0,.07,0,.08h0l0,.05h0l.05-.13.08-.17h0l0,0v-.1l.35-.75,0,.11,0,0,0,0,0-.16.05-.11,0,0,0,.68-.08.17-.34.61h0l.26-.48v0h0l.08-.18.27-.48h0l-.19.33.16-.37h0v0l.16-.38,0,.47h0l0-.5v0l0,.31h0l0-.38a.22.22,0,0,1,.16,0l0,.22-.5.85v0h0l.51-.86,0-.2.05.11-.34.8h0l.33-.78,0,.06h0v0l0-.09v0h0a1.58,1.58,0,0,1,.32-.6h0l-.38,1.32v0h0l.39-1.36.06,0v.22l-.15.65-.15.31v0h0l.12-.25-.08.35v0h0l.1-.44.15-.3v-.35l.06-.26.11-.05,0,.49-.26.82v0h0l.27-.84,0-.5s.08,0,.12,0l-.09,1.13h0l.09-1.12a.42.42,0,0,1,.16,0l0,.94h0l0-.93h0a1.58,1.58,0,0,0,.15.12l0,.41h0l0-.39s0,0,0,0,.23-.18.28-.34a1.09,1.09,0,0,1,.22-.41l0,0h0l0,0a1.09,1.09,0,0,1,.3-.23l0,0h0l0,0a1.16,1.16,0,0,1,.79-.16v.05h0v-.05a1.23,1.23,0,0,1,.19,0c0-.17,0-.34,0-.51h0v0h0l.1-.14.22.07.3.27h0v0l0-.05.09.06h0v0l-.09-.07h0a1.48,1.48,0,0,1,.08-.13l.06,0h0l.14-.26h0s0-.08.07-.12l0,.07v0h0l.21-.45a1.15,1.15,0,0,1,.22-.22h0v0l.19-.13.2-.05h0l.19-.05,0,0v0h0v0l.38-.27v0h0a2.28,2.28,0,0,0,.56-.4l0,0h0l.06-.05v0h0v-.06l.12-.09.13-.43,0-.13c0-.1,0-.2,0-.3l0-.19v-.18A1.92,1.92,0,0,1,338,279h0l.11-.21s0-.1.05-.14h0l0-.06,0-.1.18-.38,0,.13h0l0-.16,0-.05,0-.29,0,.08v0l0-.07v-.24a.24.24,0,0,0,0-.08l0,.43v0l0-.49h0v0l.08.48h0l-.2-1.16h0l.27.4h0l.06.13-.07.15h0l.07-.14.05.12v.06h0l.05-.08h0l0-.05,0,0a.75.75,0,0,0,0-.16h0v0h0v-.16l0-.09v0h0v-.05l.06-.2h0v0c0-.07.05-.13.07-.2l.09.39,0,.75h0v0h0v0l0-.17,0,.12a1.42,1.42,0,0,0,.28-.41v.64h0l0,1-.13.79,0,.12c-.1.23-.23.45-.34.67l-.05.08.08-.16v0h0l-.18.33.09-.24.18-.28h0l-.15.23.06-.17h0l0-.06.17-.48h0l-.05.14.14-.48h0l-.18.64-.2.52-.42.65h0l.38-.6-.11.32h0l-.08.12,0,0h0l-.14.24h0l.19-.32h0l-.1.2v0h0l-.07.13-.12.11h0l-.29.14h0l.29-.14-.2.17-.05,0h0v0h0l.28-.16h.05l-.22.18h0l.23-.19h.15l-.2.18h0l.21-.19a.88.88,0,0,0,.28-.12,4.2,4.2,0,0,0,.87-.76l.17-.12-.07.08h0l.51-.59.24-.45.12-.4.12-.33.11-.2v-.13l0-.06,0,.05,0-.24-.19.62-.06.14-.34.63a5.35,5.35,0,0,0,.59-1.74,6.48,6.48,0,0,0-.34-3l0,.06-.05-.11a9.44,9.44,0,0,0-.45-1l.07,0,.09.19h0l-.09-.17.09,0,.12.24h0v0l-.11-.23,0,0,.15.27h0v0l-.14-.26.08,0,.06.14h0l0-.13a1.61,1.61,0,0,0,0-.54l.09.07h0l-.1-.08a1.78,1.78,0,0,0-.28-.65l.37.59h0l-.57-.9.08.06h0l-.46-.32-.06-.05-.1-.07-.12-.06c-.13-.07-.25-.16-.37-.22a5,5,0,0,0-1.26-.33l-.09,0h0l.1,0-.24,0h.14l-.15,0h-.5l-.63,0H337a4.56,4.56,0,0,0-1.46.33,8.06,8.06,0,0,0-1.28.72l-.09,0-.2.13.22-.12c-.29.2-.59.4-.9.58l.68-.46-.38.21-.47.37a6.13,6.13,0,0,1-.89.44,6.6,6.6,0,0,1-1.4.31l-.34,0-.54.11a1.86,1.86,0,0,1-.47,0l-.31-.07c-.17,0-.33-.12-.49-.18h0l-.56-.21-.41-.16-.31-.12h0l-.13,0-.45-.15-.23-.1-.18-.15.06,0h0l-.19-.12-.1-.08-.73-.49-.2-.19h0l.17.16h0l0,0-.14-.07,0,0h0l-.05,0-.15-.15.16.11h0l-.27-.19,0,0h0l-.11-.1h0l0,0-.06,0h0v0l-.5-.37h0l-.23-.3a.89.89,0,0,1-.07-.28c0-1.38-1-2.49-1.46-3.78a.2.2,0,0,1,0-.17l.11.1h0v0l-.1-.1h0v0l0,0h0l.06.06s0,0,0,0h0v0l-1-1.06.12.06h0v0l-.54-.47-.37-.38h0l-.21-.18.2.12h0l-.27-.16-.25-.22.1.06h0l.17.12h0v0l-.5-.33h0l.21.14-.24-.14h0l-.2-.11-.05,0h.06l.24,0h0l-.26,0h-.07l-.08-.07.22.05h0v0h0v0l0,0h0l-.17-.08h.09l0,0-.23-.09.08-.05v0h-.15l0,0,.06-.07h0v0h-.37l-.07,0,0,0-.06-.06-.08-.24v-.1l0,.07h0v0l0-.1v-.15l0-.14h0l0-.08v0h0l0-.09,0-.11,0,.07h0l0-.12v0h0l0,0-.05-.25-.07-.07.07.13,0,.17v0l-.1-.28,0,0h0l.08.25,0-.05,0-.12h0v.08l0-.06a1.51,1.51,0,0,0-.09-.18h0l0,0h0l-.1-.1-.11-.29h0l0,0-.05-.09h0l.05,0h0l-.07-.07h0l0,0,0,0-.15-.19h-.05l.09.08.07.08-.14-.14h0l0,0h0l.15.15-.1-.06-.16-.17h0l0,0h0l.11.11c-.09,0-.17-.06-.16-.08s-.06.19-.09.28h0v-.15h0l0-.14.14-.05h0l-.13.08v.15h0v.1l-.06-.08h0l.07.1v.07c0,.06,0,.16-.05.24l0-.3h0l-.06.46c0,.05,0,.08,0,.15h0l0-.05h0l0,.19a.37.37,0,0,1-.22.22.74.74,0,0,1-.46-.51,1.48,1.48,0,0,0-.35-.67l0-.07h0l0,.05-.17-.19h0l0,0h0l.1.11s0,0-.06,0v0h0s-.07-.06-.11-.05,0,0-.05.06l0,0h0l0,0,0,0c-.11.3.07.7-.14.94l-.24-.27c-.05-.07-.12-.15-.21-.13h0l-.06-.06h0l.05.05h-.08l0,0h0l0,0v0l0,0h0l0,0v.05l0,0h0v0h0l0,0,0,.1h0l0,0,0,.17h0l0,0a.21.21,0,0,1-.09.13h0l-.05,0-.07-.09h0l.08.09-.06,0a.18.18,0,0,0,0-.07h0l-.13-.12h0v0l.1.08h0l-.06-.06H315l0,0,0,0h0l0,0V262l0,0h0v0l0,0v0h0l0,.08,0,0h0v0l.06,0v0l0,0h0l.05,0h0l0,0-.05,0h0l0,0s0,0,0,0l0,0h0l-.06,0,0,0h0v0l0,.08,0,.09h0l0-.08,0-.07,0,.05,0,.06h0v0h0s0,0,0,.06v0h0l0,.06a1,1,0,0,0,0,.14l-.1,0h0l.11,0a0,0,0,0,0,0,0h0v0h0s0,0,0,.06l-.09-.09h0l.05,0h.06l-.07,0-.07,0v.13l.07.11h0l0,0,.05,0,0,.07v0h0l0,0v.05h0v-.05l0-.05h0l0,.08,0,.09h0l-.06.17h0v0a1.46,1.46,0,0,0,0,.22h0v0h0s0,.06,0,.1h0l-.06.08h0V264l0,.07,0,.08s0,.05,0,.08a.84.84,0,0,0,.11.41h0l.07.15h0v.05h0l.05,0v0h0v0h0l0,.07h0s0,.06,0,.08h-.07l0-.07h0l-.09.13h-.1l-.07,0Zm.47-1.39,0,.05h0l0,0h0l0,.06a.15.15,0,0,0,0,.07v0h0v-.12Zm.06-.1a.45.45,0,0,0,0,.11l0,0Zm25.81,16.1.28-.41-.13.22Zm0-7.56A3.06,3.06,0,0,0,340,272l.22.13h0ZM340,280.3a2.92,2.92,0,0,0,.21-.28l.16-.17-.15.28Zm-1.45.9-.05,0,0,0h0Zm.09-.09h0l0,0-.05,0Zm.43-.8c-.07.13-.13.28-.21.41h0l.17-.36Zm.65-2.19h0v-1.24a1.48,1.48,0,0,0,.08-.13,1.42,1.42,0,0,1,0,.35l-.05.37h0l0-.3a3.41,3.41,0,0,1,.06.71l-.16.62h0l.15-.58a5,5,0,0,1-.39,1.45l.12-.66h0Zm-.4-1.09h0v-.1c0,.06,0,.13,0,.2l-.06.22Zm-.93-.16.07.36c0-.05,0-.1,0-.16Zm.21-.29,0-.05v.05Zm.18.33,0,.07-.19-.3-.1-.24h0v0l0,.09-.11-.17v-.27c.06.11.11.22.17.32l.09.3h0v0l0-.1C338.63,276.71,338.68,276.81,338.73,276.91Zm0,.27v0Zm-.08-.11,0-.06h0v0l0-.06a.41.41,0,0,0,.05.09v0h0l0,.14Zm-.13-.32.15.24,0,.06Zm-.23-.26v-.1l.13.21.09.21Zm0-.33,0-.11,0,.05h0Zm0,.16,0,.05v.08a.36.36,0,0,0,0-.1h0Zm-.18-.63h0l.1.18v0h0l.05.09,0,.3h0v0l0-.06A5.08,5.08,0,0,0,338.09,275.69Zm0-.05v0h0Zm-.59,4.88v0h0Zm-.07.2v-.08l.1-.08,0-.13v.07h0v-.1l0,0a1.62,1.62,0,0,0,0-.2h0v0l0,.08-.12.42Zm-.08,0,.06-.1v.07l-.06,0Zm0,0Zm-.76.57,0,0h.05Zm-.1.05h0Zm-.05.05.05,0,0,0Zm-.16.09.06,0-.05,0Zm-.05,0h0Zm-.26.09.11-.07h0l.08,0,0,0-.06,0Zm-.86.95,0,.05,0,0Zm-.14.13.06-.08,0,0,0,.1Zm-.27.11.07,0v0Zm-3.05,1.49,0,0,0,.17Zm0,.31v.26l-.12.24Zm-.08-.27h0v0Zm-.39.58,0,0v0Zm-.3-.08h0l0,.22Zm0,0h0v0Zm-1,.68v.05l0-.07h0Zm.87-.24v-.06l.08-.33s0,0,.07-.05h0V285Zm0-.22V285l0,0Zm-.05-.08,0,0v.2Zm-.12.09.1-.07,0,.23h0v.1l-.17.39Zm-.39-11.35H330l.44-.1.28,0Zm0,11.57.08-.05-.14.44Zm-.1.63,0-.09v0l.19-.58.11-.06v.07Zm0,.05h0v0h0Zm-.1-.54.18-.11-.07.53Zm0,.3h0v0Zm-.09-.26,0,0,.05.24h0Zm-.06.59,0-.31v0l0,0v0l0-.14v-.06l.06.2Zm-.09-.49,0,0,0,0,.05.18,0,.36h0l-.07.18Zm-.19.23a.65.65,0,0,1,.15-.18l0,.61-.11-.22Zm-.05.09a.25.25,0,0,1,0-.07l0,.11,0-.05h0l0,0h0Zm-.13.32h.05l0,.08,0,0Zm-.09,0h0l0,0Zm-.18,0v-.06h0l.11.33Zm4.64,4.95h0Zm-.29-.28.12.05,0,0-.14-.06Zm-1.73.63h0v0Zm-.42,1.13v0l0,0h0Zm0,.06h0Zm0,0,0,0h0Zm0,0Zm0,.08,0,0v0Zm-.06-.09h0v0h0Zm0,0v0h0v0h0Zm0-.08h0v0Zm0,0,0,.06,0,0h0v-.05Zm.1-.24,0,0h0v0l.08.13-.1,0h0v0l.09,0-.11.16,0-.06h0v0h0l0-.06a1,1,0,0,0,.08-.14s0,0,0,0Zm0-.07v0h0Zm.12-.38,0,.09v0l0,.07h0V292Zm.11.09h0v0h0v0Zm0-.11h0l0-.15,0,0h0v0h0l0,0h0v0l0,0h0v.22Zm0,.15h0Zm0,.17v0h0v0h0l0-.1h0Zm0-.26-.05-.11v0l.05.15Zm0,0v0Zm0,.09h0v0Zm0,.27,0-.12v.05Zm-.06.13-.08-.13h0l0,.06h0v0l0-.05h0l0-.08a.25.25,0,0,1,0-.07h0v0h0l0-.08v0l0,.2h0v-.15h0v0h0l0,0,0,.06,0,.11v-.06h0v.13l0,.11Zm-.23.35,0,0,0,0h0l0,0,.17-.2,0,.11-.14.26Zm0,0,0-.06,0,0Zm0,0h0l-.06,0a.21.21,0,0,1,0-.06l0,.08Zm-.42.35,0-.05V293h0a.68.68,0,0,0,.27-.26l.07,0h0l0,.05-.11.09h0v0h0l0,0-.08.08-.09.08h0Zm0,0,0-.07h0l0,.08Zm0,0h0Zm0,0v0Zm0,0v0h0Zm-.09-.11.11,0,0,.06Zm-.1-3.33h0l.1.15v0l-.05-.05h0Zm-1.19,3.53.2,0h0l.1,0h-.27l-.06,0Zm.26-.56,0,0h0l-.09,0Zm-.15-2.36.07.07.1.17Zm-1.4-1.9.36.57-.55-.65Zm-1.09-1.69h0l0-.05h0Zm0,0v0l0,0,0,0h0Zm0,.09h0l.06.07V287l-.08-.07v0h0Zm0-.08.05.06v.05l-.06-.06v0h0v0Zm0-.12h0Zm0,0v.13l0-.05h0v-.1h0Zm0,.26.07.06v.09L327,287Zm.08.05h0Zm-.08-.11.05.07v0l-.06,0Zm0-.13,0,.14,0-.05Zm.12.18h0V287l-.05-.07-.06-.24a1.09,1.09,0,0,1,.08.15Zm0,.11v0Zm.27.34-.25-.36V287l0,.11h0l0-.09Zm.24.5h0l.07.08,0,.06Zm-.5-.62.05,0,.12.16Zm-.21-.21.09.1-.08-.06Zm0-.13.08.09v.06h0V287l.09.1h0l.13.14h0l-.14-.13v-.06h0l.23.33h0a3.9,3.9,0,0,0,.19.35h0l.05,0,.05.1h0l-.18-.2-.23-.32.09.07h0v0l-.14-.1-.07-.1h0v0l0,.05-.07-.05-.16-.19Zm0,.15v0Zm-6.54,6.37,0,0h0l-.14,0,.19,0Zm0,0h0l-.07,0Zm0,0h0l0,0Zm.18,0h0Zm0,.15h-.4l.18,0Zm1.57-.64,0,0H322Zm.1,0h0l0,0Zm.14,0h0Zm4.15-5.94.06.09,0,.16h0l-.1-.1,0,0Zm0,.11,0,0v0l0,0Zm.13,0h0v0Zm0-.09-.05-.07,0,0Zm.21,0,0,0h0v.06Zm-.13.28h0v-.43h0v-.05l.11-.08,0,.12V287h0v0h0v0l-.05,0h0v0l0,0-.11.32h0Zm0-.07v-.08h0v.08Zm0-.38v.23l0,0,0-.15Zm-.15.35,0,0v0l.08.11h0l0,0,.07.07,0,.07-.16-.12Zm0-.07v0l0,0Zm0,0v-.05l0,.06v0Zm0-.11Zm-.16.35,0-.08h0v0h0v0h0v0l.06-.18h0l0,0h0l0,.07h0v0h0l-.1.37Zm0-.16h0l0,0,0-.05.07-.06,0,.11v0Zm0,0h0v0Zm-.13.12.07-.15,0,.07,0,.05v-.05h0v.08l0,.09Zm0,0,0,0,.08-.1Zm-.1.21,0-.16.05-.06,0,0ZM326,272.4l-.11-.11h0l-.22-.21.12.08.63.47h0l0,0,.07.05h0c-.06,0-.1-.07-.16-.09l-.16-.12h0l0,0Zm-.14,15.33h0l-.05.1,0,0a0,0,0,0,0,0,0,1.27,1.27,0,0,1,.1-.12Zm0,.22Zm0-.08,0-.05,0,.06Zm-.25.48v-.06a2.92,2.92,0,0,1,.18-.46l0,0-.13.26v0h0l.13-.25h0v0h0l-.14.38,0-.07h0l0,.1h0Zm-.07.32,0-.25s0-.05,0-.08v.25l0,.1Zm0,0s0-.06,0-.09v.1Zm-.16-16.74.25.13.31.29v0l-.21-.12-.1-.07Zm.08,17.93v0l0,0v.11Zm0,.09h0v0l0,.09v0l0,0h0Zm0,.3,0-.19v.07Zm0-.3h0a.43.43,0,0,0,0-.05h0Zm-.05.17,0-.13V290l0,.22v-.14Zm-.39-18.39.32.17.22.2Zm-.88,20.1a1.19,1.19,0,0,1-.1.32,1.34,1.34,0,0,1-.26.27h0Zm.27,1.72-.26.05h0C324.15,293.55,324.24,293.52,324.33,293.52Zm-.14-22.47.08.06.06.07h0l.57.39.2.18-.42-.2A2.7,2.7,0,0,1,324.19,271.05ZM324,288.63c0,.06,0,.12.05.18l0,.18c0,.24,0,.48,0,.72h0Zm0-17.86.19.24h0A.87.87,0,0,1,324,270.77Zm-.24,17.06a.05.05,0,0,1,0,0l0,0Zm-.16-.18Zm-.17-.22h0l.08.1-.06-.07h0Zm-.19-.19h0l0,0,0,0Zm-.18-.23.05,0c.05,0,.08.11.13.16l0,0,0,0h0v0Zm-.23-.13.06,0,0,0-.06,0Zm-.58-.32.23.13.1.16Zm-3.11-23.27,0,0,0,0h.08Zm.23,0-.17.1,0,0,.09-.05h0l-.1.05,0,0,.06,0h.2Zm-.13,21.31v0l-.06-.08Zm.16-21.28h0Zm-.1.08h-.06l.13-.08h0l0,0Zm.07.06-.06,0h.11Zm0,0h0l0,0Zm.12.08,0,0h0Zm.09.07h-.05l0,0Zm0,0h.07l.05,0Zm1,.84-.39-.33,0,0Zm.92.82a1.31,1.31,0,0,0-.11-.12l.19.15Zm.26,21,.05,0,0,0Zm-.34-.19,0,0v0l.25.13v0l-.26-.1Zm-.23-.1.18.08.06.1-.08,0-.13-.07Zm-.07,0,0,0,0,.07,0,0Zm-.13,0,0-.06.14.06,0,.07Zm-.21-.14.15.06,0,.06,0,0h0l-.13-.08Zm0-21.28.13.11h0Zm-.1,21.18.09.06-.08,0h0Zm-.27-.19.22.16h0l-.21-.13Zm-.3-.22a1.49,1.49,0,0,0,.2.15l0,0-.21-.16Zm-.1-.07.07,0h0Zm-.06-21.35.17.09.08.07h0v0l0,0-.08-.05Zm-.42,21h0v0l0-.08c.13.13.25.27.39.39Zm-.17-.26.09.1.08.16-.08-.06-.08-.13Zm-.33-.38.31.47v0l-.13-.11Zm-.52-22.79,0,0h0a.29.29,0,0,0,0-.09h0Zm0,.08,0-.08,0,0Zm.29.75v.05a.72.72,0,0,0-.1-.36s0-.07,0-.1l0,.06Zm-.06-.32,0,.06,0,.11v.11Zm.15,1V263h0l0,.12,0-.05h0Zm0-.35a1.36,1.36,0,0,1,0-.17v0l0,.12Zm-.45,20.85.06,0,0,0h0l.15.23h0l.11.15,0,.1-.24-.33h0v0l0,0-.16-.2Zm0-22.22Zm-.57-.09h0Zm.28,22,.28.29v.07l-.28-.34Zm0-.18.19.26-.16-.15Zm-.16-.1.11.16h0l-.09-.1,0,0Zm0-.08,0-.06a1.88,1.88,0,0,0,.12.18h0v.06l-.12-.16Zm0-.06,0-.1,0,.07Zm-.52-.64.41.63-.29-.36h0l0-.06v0h0l-.07-.13Zm-.13-.63c.17.35.35.69.55,1l0,.17-.07-.12h0l.12.21v0l-.49-.74h0v.06l0,0Zm0,.19,0,.12,0,.2,0-.05Zm-.07-.27,0-.19c0,.07.07.12.1.19l0,.11h0v.07Zm-.13-.35s.05.08.06.11l0,.14Zm-.93-6.39,0-.1,0,0v.16h0v0Zm0-.14v0Zm.05-.47c0,.08,0,.15-.05.23l-.05.29-.13.14.08-.22h0v-.07Zm.81-2.83a2.34,2.34,0,0,1,0,.38h0v-.08l0-.19v-.16l0-.19h0l0-.38v0a3.47,3.47,0,0,1,.08.55v0Zm-.3,9v-.07l0,.08,0,.15Zm-.06-.26-.1-.57c0,.17.07.34.11.5h0v0c0,.06,0,.13.05.19h0v.05l0-.19Zm-.22-.71,0,0,0,.33h0v-.1l0,.19-.08.39Zm0-.42.18,1,0-.14h0l-.06-.27Zm0-.16v.06h0Zm0-1.14v.06l0,0v0l0-.25v0l0,.4h0a.43.43,0,0,0,0,.05c0,.5,0,1,0,1.48l-.1-.6h0l-.05-.8Zm0-.76,0,.44h0l-.11-1.09v0C316.23,276.43,316.25,276.65,316.28,276.87Zm.05-3.87v.05h0l-.12.45-.09.1.17-.54h0Zm.27-.92-.1.37h0v0l.11-.35Zm.21-.42,0,.23v0h0l-.07.2h0l-.21.45.18-.63.14-.3Zm.05.12h0v-.08a2,2,0,0,1,0,.34,1.45,1.45,0,0,1-.09.22v0h0l0,.1c-.12.27-.27.54-.39.81l0-.21.21-.52h0v0h0Zm0-.06,0-.06v0Zm0-.16Zm-.07-1.17v0l0,.16,0,.44h0v-.2l.05.39v.18l0,.08,0-.29h0Zm-.06-.18a.19.19,0,0,1,0,.07l.06.68,0-.29Zm-.58-1.56-.05-.12v0l.05.13Zm.07.36h0l-.06-.25.08.2h0v0Zm.22.33,0,0v0Zm-.12-.2h0v0h0l0,.08h0v0l0-.1h0l.06.15-.07,0h0Zm-.14-.39h0l.11.31Zm.09.29h0Zm-.37-1.23c.05.14.09.28.14.42l.05.2h0v-.05h0v0l0,.09h0v0l.13.49h0v0l0,.09,0,0-.28-.68Zm-.29-6.28h0Zm-.14.31.06,0h0l0,0h0l0,0a.17.17,0,0,1,0,.07l0,0h0Zm.05-.07a.19.19,0,0,0,0,.08l-.06,0,0-.09Zm-.06-.15.07.06v0l0,0h0l0,0h0l0,0Zm.1,0-.06-.05h.07l0,0Zm0,0,0,0s0,0,0,0l-.07-.06v0l0,0Zm-.22,4.19h0Zm-.06,0,.08.1h0l-.05-.05ZM315,262l0,0h0l.05,0s0,0,0,0Zm.08.14L315,262v0h0l.11.08Zm0,.1,0,0,0-.08,0,.05h0l0,0,0,0,.08.06S315.06,262.16,315.05,262.19Zm0,0h0Zm-.11.2-.05,0,0,0,0,0h0l0,0Zm-.22,2.41h0Zm.05,0h0l-.07-.15A.4.4,0,0,1,314.74,264.8Zm0,0Zm0-1.9-.08-.07h0l.08.09V263l-.06-.06h0l0-.06v-.08h0l.1.1Zm0,2,0-.12h0v0h0v0h0S314.75,264.92,314.73,265Zm-.12.14,0,0h0Zm-.66.36a.8.8,0,0,0-.13.22.28.28,0,0,0,0,.2l0,0h0l0-.06h0v-.08l0-.09h0Zm0,0,.13-.14.09,0s-.07,0-.09,0A.86.86,0,0,0,314,265.44Z" fill="url(#linear-gradient-19)"/><polygon points="325.34 290.32 325.33 290.36 325.34 290.32 325.34 290.32" fill="url(#linear-gradient-20)"/><polygon points="333.9 272.3 333.9 272.29 334.12 272.14 333.91 272.3 333.9 272.3" fill="url(#linear-gradient-21)"/><polygon points="336.5 271.13 336.57 271.13 336.5 271.13 336.5 271.13" fill="url(#linear-gradient-22)"/><polygon points="334.52 271.85 334.81 271.7 334.12 272.14 334.52 271.85" fill="url(#linear-gradient-23)"/><polygon points="335.2 271.5 335.3 271.47 335.18 271.5 335.2 271.5" fill="url(#linear-gradient-24)"/><polygon points="336.34 271.14 336.5 271.13 335.3 271.47 336.34 271.14" fill="url(#linear-gradient-25)"/><polygon points="335.04 271.55 335.18 271.5 334.81 271.7 335.04 271.55" fill="url(#linear-gradient-26)"/><polygon points="332.61 284.52 332.62 284.51 332.63 284.52 332.68 285.79 332.67 285.8 332.66 285.79 332.61 284.52" fill="url(#linear-gradient-27)"/><polygon points="331.75 286.19 331.91 285.26 331.92 285.25 331.93 285.26 331.76 286.19 331.75 286.2 331.75 286.19" fill="url(#linear-gradient-28)"/><polygon points="331.29 285.3 331.3 285.3 331.31 285.31 331.16 285.94 331.15 285.95 331.14 285.94 331.29 285.3" fill="url(#linear-gradient-29)"/><polygon points="332.48 284.9 332.48 284.92 332.38 285.25 332.26 286.04 332.25 286.05 332.24 286.04 332.35 285.35 332.29 285.55 332.28 285.56 332.27 285.55 332.37 285.23 332.39 285.11 332.4 285.1 332.4 285.11 332.4 285.12 332.47 284.91 332.48 284.9" fill="url(#linear-gradient-30)"/><polygon points="332.77 284.02 332.78 284.02 333.12 284.31 333.12 284.33 333.11 284.33 332.77 284.03 332.77 284.02" fill="url(#linear-gradient-31)"/><polygon points="333.49 291.21 333.48 291.2 333.49 291.2 333.49 291.21" fill="url(#linear-gradient-32)"/><polygon points="321.35 286.63 321.3 286.53 321.34 286.56 321.39 286.68 321.35 286.63" fill="url(#linear-gradient-33)"/><polygon points="317.11 282.07 317.2 282.41 317.15 282.34 317.08 282.08 317.09 282.06 317.11 282.07" fill="url(#linear-gradient-34)"/></g></g></g></svg>